<?xml version="1.0" ?><svg enable-background="new 0 0 64 64" version="1.1" viewBox="0 0 64 64" xml:space="preserve" xmlns="http://www.w3.org/2000/svg" xmlns:xlink="http://www.w3.org/1999/xlink"><g id="Grid"/><g id="row_3"/><g id="row_2"><g id="call_x5F_to_x5F_bank"><path d="M32,12c11,0,20,9,20,20s-9,20-20,20s-20-9-20-20S21,12,32,12 M32,8C18.7,8,8,18.7,8,32s10.7,24,24,24    s24-10.7,24-24S45.3,8,32,8L32,8z" fill="#FFECB3"/><path d="M11.7,19.2C15.9,12.5,23.4,8,32,8V6c-9.2,0-17.4,4.9-22,12.2L11.7,19.2z" fill="#F44336"/><path d="M58.5,32.2h-1C57.5,18.1,46.1,6.7,32,6.7v-1C46.6,5.7,58.5,17.5,58.5,32.2z" fill="#263238"/><path d="M32,58.7c-14.6,0-26.5-11.9-26.5-26.5h1c0,14.1,11.4,25.5,25.5,25.5V58.7z" fill="#263238"/><path d="M38.4,21c-0.7-1.2-2-2-3.4-2v-4c3.7,0,6.8,2.6,7.7,6H47c0.8,0.8,1.2,1.2,2,2v18c-0.8,0.8-1.2,1.2-2,2H17    c-0.8-0.8-1.2-1.2-2-2V23c0.8-0.8,1.2-1.2,2-2H38.4z" fill="#FFC107"/><path d="M17.6,6.5L20.7,5l6,1c0.2,2.8,0.6,5.7,1.1,8.5L22,26.2c0.7,3,1.7,6,3.1,8.9c1.4,2.9,3,5.6,4.9,8.1    l12.8,3.1c1.8,2.2,3.7,4.3,5.8,6.3L45.4,58l-3.2,1.4C33.3,54.5,25.8,46.9,21.2,37C16.5,27.1,15.5,16.4,17.6,6.5z" fill="#01579B"/><g><polygon fill="#F44336" points="47.2,44 50.4,39 48,39 44.9,44 48,49 50.4,49    "/><polygon fill="#F44336" points="52,44 55.1,39 52.8,39 49.6,44 52.8,49 55.1,49    "/></g></g></g><g id="row_1"/></svg>