<?xml version="1.0" ?><!DOCTYPE svg  PUBLIC '-//W3C//DTD SVG 1.1//EN'  'http://www.w3.org/Graphics/SVG/1.1/DTD/svg11.dtd'><svg enable-background="new 0 0 140 140" height="140px" id="Layer_1" version="1.1" viewBox="0 0 140 140" width="140px" xml:space="preserve" xmlns="http://www.w3.org/2000/svg" xmlns:xlink="http://www.w3.org/1999/xlink"><g><path d="M37.986,24.955C38.147,24.975,38.281,24.984,37.986,24.955L37.986,24.955z" fill="#231F20"/><path d="M131.499,72.116c-1.36-7.706-6.76-13.914-12.052-19.398c-0.503-6.268-2.437-12.891-7.081-17.261   c-4.26-4.009-11.09-5.413-17.016-5.695c-0.599-2.232-1.331-4.426-2.278-6.536c-1.348-3-4.185-4.468-7.064-5.683   c-3.168-1.337-6.605-2.096-9.969-2.756c-0.811-0.159-1.625-0.296-2.441-0.426c-0.072-0.068-0.142-0.138-0.215-0.206   c-5.189-4.781-12.26-7.778-19.373-6.938c-7.543,0.891-13.092,5.829-16.885,12.062c-11.096-0.993-22.569,3.54-28.512,13.266   c-2.775,4.541-2.875,9.325-1.211,14.256c1.148,3.401,2.206,6.551,2.831,10.077c1.356,7.648,6.848,11.626,14.188,13.053   c0.316,0.119,0.678,0.184,1.088,0.172c0.505-0.015,0.99-0.058,1.464-0.117c2.59,8.009,1.85,15.766-0.826,23.727   c-1.896,5.643-4.431,11.117-6.583,16.67c-1.079,2.782-2.855,5.903-3.15,8.912c-0.463,4.717,1.398,9.679,4.996,12.761   c4.242,3.635,10.684,5.331,16.211,4.974c1.58-0.103,2.322-1.022,3.321-2.069c2.08-2.18,4.119-4.396,6.121-6.648   c4.632-5.21,8.752-10.763,13.88-15.526c5.119-4.756,11.098-8.616,17.798-10.693c3.031-0.94,6.146-1.361,9.296-1.426   c1.604,3.349,4.544,5.905,8.87,6.644c4.789,0.817,9.185,0.188,13.255-2.487c2.234-1.47,4.295-3.146,6.664-4.408   c2.281-1.215,4.374-2.395,6.395-4.03C130.411,90.564,133.065,80.985,131.499,72.116z M17.736,60.819   c-1.435-1.539-1.841-3.858-2.193-5.848c-0.5-2.821-1.188-5.396-2.192-8.101c-1.676-4.515-2.137-7.872,0.487-12.166   c3.382-5.535,9.33-8.447,15.525-9.545c2.085-0.369,4.239-0.425,6.352-0.362c0.647,0.02,1.293,0.065,1.937,0.125   c0.154,0.014,0.255,0.024,0.335,0.032c-0.033-0.004-0.066-0.009-0.097-0.014c1.226,0.194,2.507-0.1,3.152-1.283   c3.119-5.718,7.64-10.49,14.481-11.002c5.372-0.402,10.792,2.344,14.546,6.05c1.058,1.044,2.247,1.056,3.632,1.306   c2.901,0.522,5.776,1.202,8.584,2.1c2.375,0.759,4.803,1.605,5.967,3.934c1.099,2.197,1.659,4.809,2.216,7.193   c0.281,1.206,1.486,2.044,2.691,2.049c3.663,0.015,7.344,0.628,10.822,1.76c5.67,1.845,8.017,6.496,9.262,11.992   c0.346,1.527,0.572,3.08,0.688,4.641c0.122,1.67,1.094,2.484,2.159,3.622c1.828,1.952,3.623,3.927,5.197,6.039   c-1.719,7.625-12.6,7.653-19.183,6.392c-0.698-0.134-1.567,0.186-1.718,0.975c-1.157,6.086-8.007,10.314-13.627,7.863   c-0.013-0.142-0.031-0.28-0.06-0.413c-0.275-1.255-0.824-2.172-1.656-3.137c-1.477-1.712-3.808-2.494-5.56-3.852   c-1.488-1.154-1.771-3.756-2.389-5.437c-0.548-1.489-1.377-3.236-2.928-3.938c-1.16-0.525-2.207-0.811-3.474-0.964   c-1.499-0.18-2.439-0.769-3.647-1.634c-3.606-2.582-5.246-5.574-6.563-9.759c-0.501-1.592-2.571-2.758-4.101-1.668   c-5.527,3.938-13.053,5.967-19.153,2.144c-1.725-1.082-4.335,0.306-4.201,2.411c0.346,5.416-0.883,11.891-7.36,12.188   C22.723,63.939,19.841,63.076,17.736,60.819z M77.183,76.34c0.041,0.028,0.077,0.058,0.118,0.086   c1.063,0.727,2.255,1.272,3.275,2.064c0.862,0.668,0.824,2.124,0.887,3.338c-2.904,1.214-6.025,2.07-9.148,2.682   C74.47,82.147,76.231,79.346,77.183,76.34z M54.364,55.34c0.673-0.298,1.336-0.622,1.982-0.972   c1.368,3.252,3.209,6.041,6.195,8.378c0.812,0.636,1.592,1.213,2.389,1.718c-2.605,8.731-7.911,15.624-15.117,20.95   c1.738-4.263,3.006-8.664,3.698-13.272C54.344,66.588,54.366,60.948,54.364,55.34z M41.453,71.312   c-0.394-4.083-1.424-8.05-3.506-11.607c0.263-0.994,0.452-2.025,0.569-3.078c1.42,0.451,2.88,0.727,4.355,0.839   C43.374,62.013,42.686,66.765,41.453,71.312z M22.394,123.677c-0.329-1.061-0.428-2.138-0.443-3.24   c0-0.021,0.001-0.042,0.001-0.063c6.777,0.382,13.319,4.302,14.323,11.137C30.754,131.563,24.098,129.167,22.394,123.677z    M56.996,108.838c-6.756,6.129-12.233,13.574-18.349,20.366c-1.948-6.774-8.737-10.99-15.904-11.586   c0.356-0.934,0.71-1.868,1.068-2.801c2.396-6.241,5.077-12.391,7.383-18.662c3.357-9.131,4.17-18.736,1.043-28.015   c1.908-1.225,3.367-2.951,4.406-4.985c2.267,5.079,2.454,10.996,2.067,16.496c-0.12,1.695,2.205,1.725,2.742,0.372   c2.748-6.919,4.93-14.943,4.213-22.535c1.99-0.111,3.978-0.49,5.904-1.096c-0.007,5.012-0.078,10.035-0.752,15.006   C50,77.426,48.029,83.16,45.333,88.593c-0.595,1.198,0.646,2.68,1.91,1.909c9.671-5.889,16.902-14.066,20.218-24.776   c0.764,0.277,1.573,0.488,2.475,0.596c1.06,0.127,1.418,0.009,1.776,0.894c0.494,1.224,0.854,2.506,1.286,3.752   c0.469,1.347,1.071,2.405,1.866,3.332c-0.959,4.376-4.149,8.53-7.596,11.114c-0.952,0.714-0.844,2.807,0.705,2.601   c4.813-0.64,9.743-1.678,14.286-3.519c0.788,1.347,2.014,2.604,2.857,3.691c0.598,0.771,1.206,1.533,1.812,2.298   c-0.302,1.555-0.401,3.128-0.297,4.659C75.335,95.807,65.375,101.236,56.996,108.838z M122.729,88.802   c-1.67,2.428-4.085,4.292-6.609,5.746c-3.268,1.883-6.333,3.85-9.491,5.926c-4.06,2.669-11.269,2.467-13.705-2.254   c-1.222-2.367-0.953-5.074-0.312-7.556c0.513-1.982-1.292-3.552-2.414-4.976c-1.023-1.299-2.045-2.602-3.007-3.947   c-0.046-0.063-0.074-0.135-0.11-0.202c6.426,1.755,13.71-2.153,15.696-8.876c7.399,1.111,17.253,0.275,20.469-6.398   c1.085,1.83,1.972,3.78,2.552,5.916C127.359,77.932,126.064,83.95,122.729,88.802z" fill="#231F20"/><path d="M43.692,39.397c8.667,5.111,20.146,7.851,29.622,3.977c-0.761,5.076,1.589,10.09,5.344,13.783   c5.082,4.998,12.463,6.403,18.956,3.559c1.646-0.721,0.223-3.125-1.409-2.411c-5.467,2.395-11.287,0.796-15.573-3.123   c-3.667-3.354-6.054-8.911-3.951-13.723c0.528-1.207-0.598-2.679-1.909-1.91c-9.444,5.539-21.956,2.317-30.744-3.215   c-0.677-0.426-1.493-0.111-1.91,0.501c-4.892,7.173-13.881,11.82-22.253,7.947c-1.623-0.75-3.042,1.655-1.409,2.411   C27.854,51.541,37.749,47.212,43.692,39.397z" fill="#231F20"/></g></svg>