<?xml version="1.0" ?><!DOCTYPE svg  PUBLIC '-//W3C//DTD SVG 1.1//EN'  'http://www.w3.org/Graphics/SVG/1.1/DTD/svg11.dtd'><svg enable-background="new 0 0 64 64" id="Layer_1" version="1.1" viewBox="0 0 64 64" xml:space="preserve" xmlns="http://www.w3.org/2000/svg" xmlns:xlink="http://www.w3.org/1999/xlink"><g><g><path d="M5.2,1.5c-2,0-3.7,1.7-3.7,3.8v28v7v14.8L12,40.3h42.6c2,0,3.7-1.7,3.7-3.8v-35H5.2z" fill="#FFFFFF"/></g><g><path d="M0.5,58.2v-53c0-2.6,2.1-4.8,4.7-4.8h54.1v23.2h-2V2.5H5.2c-1.5,0-2.7,1.2-2.7,2.8V52l9-12.7h11.6v2H12.5    L0.5,58.2z" fill="#193651"/></g><g><line fill="#FFFFFF" x1="46.5" x2="13.3" y1="10.1" y2="10.1"/><rect fill="#193651" height="2" width="33.2" x="13.3" y="9.1"/></g><g><line fill="#FFFFFF" x1="46.5" x2="13.3" y1="16.3" y2="16.3"/><rect fill="#193651" height="2" width="33.2" x="13.3" y="15.3"/></g><g><g><path d="M61.2,30.1c1.3,0,2.3,1,2.3,2.3v17.5v4.4v9.2l-6.6-9.2H30.3c-1.3,0-2.3-1-2.3-2.3V30.1H61.2z" fill="#F16051"/></g><g><line fill="#FFFFFF" x1="56" x2="35.6" y1="37.4" y2="37.4"/><rect fill="#FFFFFF" height="2" width="20.4" x="35.6" y="36.4"/></g><g><line fill="#FFFFFF" x1="37.5" x2="35.6" y1="44.2" y2="44.2"/><rect fill="#FFFFFF" height="2" width="1.9" x="35.6" y="43.2"/></g><g><line fill="#FFFFFF" x1="42.1" x2="40.2" y1="44.2" y2="44.2"/><rect fill="#FFFFFF" height="2" width="1.9" x="40.2" y="43.2"/></g><g><line fill="#FFFFFF" x1="46.7" x2="44.8" y1="44.2" y2="44.2"/><rect fill="#FFFFFF" height="2" width="1.9" x="44.8" y="43.2"/></g><g><line fill="#FFFFFF" x1="51.3" x2="49.4" y1="44.2" y2="44.2"/><rect fill="#FFFFFF" height="2" width="1.9" x="49.4" y="43.2"/></g><g><line fill="#FFFFFF" x1="56" x2="54.1" y1="44.2" y2="44.2"/><rect fill="#FFFFFF" height="2" width="1.9" x="54.1" y="43.2"/></g></g><g><line fill="#FFFFFF" x1="15.4" x2="13.5" y1="22" y2="22"/><rect fill="#193651" height="2" width="1.9" x="13.5" y="21"/></g><g><line fill="#FFFFFF" x1="21.6" x2="19.7" y1="22" y2="22"/><rect fill="#193651" height="2" width="1.9" x="19.7" y="21"/></g><g><line fill="#FFFFFF" x1="27.8" x2="25.9" y1="22" y2="22"/><rect fill="#193651" height="2" width="1.9" x="25.9" y="21"/></g><g><line fill="#FFFFFF" x1="34" x2="32.1" y1="22" y2="22"/><rect fill="#193651" height="2" width="1.9" x="32.1" y="21"/></g><g><line fill="#FFFFFF" x1="40.2" x2="38.3" y1="22" y2="22"/><rect fill="#193651" height="2" width="1.9" x="38.3" y="21"/></g><g><line fill="#FFFFFF" x1="46.4" x2="44.5" y1="22" y2="22"/><rect fill="#193651" height="2" width="1.9" x="44.5" y="21"/></g></g></svg>