<?xml version="1.0" ?><svg height="61px" version="1.1" viewBox="0 0 60 61" width="60px" xmlns="http://www.w3.org/2000/svg" xmlns:xlink="http://www.w3.org/1999/xlink"><title/><desc/><defs/><g fill="none" fill-rule="evenodd" id="Page-1" stroke="none" stroke-width="1"><g id="Icons" transform="translate(-1200.000000, -1940.000000)"><g id="284--Repeat--(interaction,-communication,-essential)" transform="translate(1201.000000, 1941.000000)"><path d="M58,29.36 C58,45.376 45.016,58.36 29,58.36 C12.984,58.36 0,45.376 0,29.36 C0,13.344 12.984,0.36 29,0.36 C45.016,0.36 58,13.344 58,29.36" fill="#FFA800" id="Fill-1838"/><path d="M55,29.36 C55,45.376 43.359,58.36 29,58.36 C14.641,58.36 3,45.376 3,29.36 C3,13.344 14.641,0.36 29,0.36 C43.359,0.36 55,13.344 55,29.36" fill="#FFE100" id="Fill-1839"/><path d="M3,29.36 C3,13.344 14.641,0.36 29,0.36 C12.984,0.36 0,13.344 0,29.36 C0,45.376 12.984,58.36 29,58.36 C14.641,58.36 3,45.376 3,29.36" fill="#FFFFFF" id="Fill-1840"/><path d="M10,30.36 C10,23.727 15.367,18.36 22,18.36 L36,18.36" id="Stroke-3363" stroke="#000000" stroke-linecap="round" stroke-width="2"/><polyline id="Stroke-3364" points="26 26.36 37 18.36 26 10.36" stroke="#000000" stroke-linecap="round" stroke-width="2"/><path d="M58,29.36 C58,45.376 45.016,58.36 29,58.36 C12.984,58.36 0,45.376 0,29.36 C0,13.344 12.984,0.36 29,0.36 C45.016,0.36 58,13.344 58,29.36 L58,29.36 Z" id="Stroke-3373" stroke="#000000" stroke-linecap="round" stroke-width="2"/><path d="M47,28.36 C47,34.993 41.633,40.36 35,40.36 L21,40.36" id="Stroke-3423" stroke="#000000" stroke-linecap="round" stroke-width="2"/><polyline id="Stroke-3424" points="31 32.36 20 40.36 31 48.36" stroke="#000000" stroke-linecap="round" stroke-width="2"/></g></g></g></svg>