<?xml version="1.0" ?><!DOCTYPE svg  PUBLIC '-//W3C//DTD SVG 1.1//EN'  'http://www.w3.org/Graphics/SVG/1.1/DTD/svg11.dtd'><svg enable-background="new 0 0 128 128" id="Layer_1" version="1.1" viewBox="0 0 128 128" xml:space="preserve" xmlns="http://www.w3.org/2000/svg" xmlns:xlink="http://www.w3.org/1999/xlink"><g><path d="M128,64c0,0.3,0,0.5,0,0.8c-0.4,33.3-26.3,60.5-59,63c-1.6,0.1-3.3,0.2-5,0.2C28.7,128,0,99.3,0,64   C0,28.7,28.7,0,64,0C99.4,0,128,28.7,128,64z" fill="#EEAE55"/><linearGradient gradientUnits="userSpaceOnUse" id="SVGID_1_" x1="109.58" x2="38.4479" y1="107.59" y2="36.4579"><stop offset="6.099907e-002" style="stop-color:#FFFFFF;stop-opacity:0"/><stop offset="0.162" style="stop-color:#CDCDCD;stop-opacity:0.1075"/><stop offset="0.2839" style="stop-color:#979797;stop-opacity:0.2374"/><stop offset="0.4075" style="stop-color:#696969;stop-opacity:0.369"/><stop offset="0.5299" style="stop-color:#434343;stop-opacity:0.4994"/><stop offset="0.6511" style="stop-color:#262626;stop-opacity:0.6284"/><stop offset="0.7706" style="stop-color:#111111;stop-opacity:0.7557"/><stop offset="0.8878" style="stop-color:#040404;stop-opacity:0.8806"/><stop offset="1" style="stop-color:#000000"/></linearGradient><path d="M94,30.8c-0.7,2.1-2.7,5.4-5.5,9.4l-4.3-4.3l-2.1,2.9l-8.6-8.6l-1,3.1l-3.7-3.7v4.8   L64,29.5L63.8,32l3.8,17.5l-1.8,5.6L45.6,34.9v11.4l5.9,13.4L29.9,63l22,22c-7.4,7.6-13.7,12.5-13.7,12.5L69,127.8   c32.8-2.5,58.7-29.7,59-63L94,30.8z" fill="url(#SVGID_1_)" opacity="0.2"/><g><g><g><path d="M47.6,40.8L46,36.6l-5.7,2.1l1.6,4.3c1.5,4.1,1.7,8.6,0.5,12.8c-0.7,2.6-0.6,5.3,0.3,7.7L50.6,85      c0.4,1.2,1.7,1.8,2.9,1.4l13.2-4.9c1.2-0.4,1.8-1.7,1.4-2.9l-7.9-21.4c-0.9-2.5-2.6-4.6-4.8-6.1C51.9,48.5,49.1,45,47.6,40.8z" fill="#2BA2DC"/><path d="M45.6,34.9l-6.1,2.2c-0.1,0.1-0.2,0.2-0.2,0.4l1.2,3.2c0.1,0.1,0.2,0.2,0.3,0.2l6.1-2.2      c0.1-0.1,0.2-0.2,0.2-0.4L45.9,35C45.9,34.9,45.7,34.8,45.6,34.9z" fill="#ECF0F3"/></g><g><g><g><path d="M88.3,36.2c-0.3-0.2-0.6-0.3-0.9-0.3c-0.4,0.1-0.6,0.5-0.6,0.8c0,0.4,0.1,0.7,0.3,1.1        c0.2,0.3,0.4,0.6,0.6,1c0.4,1,0.1,2-0.2,3c-0.4,1.2-0.8,2.3-1.3,3.4c-0.1,0.1-0.1,0.3-0.1,0.4l0.5,0.2        c0.1-0.1,0.2-0.2,0.3-0.3c0.6-1,1.3-2.1,2-3c0.6-0.8,1.3-1.7,2.3-1.9c0.4-0.1,0.7-0.1,1.1-0.1c0.4,0,0.8-0.1,1.1-0.3        c0.3-0.2,0.5-0.7,0.3-1c-0.1-0.3-0.4-0.4-0.7-0.6c0.5-0.1,0.9-0.3,1.3-0.5c0.4-0.2,0.7-0.6,0.8-1.1c0.1-0.5-0.2-1-0.7-1.1        c0.8-0.3,1.3-1.2,1.2-2.1c0-0.3-0.2-0.6-0.5-0.7c-0.3-0.1-0.6,0-0.9-0.2c0.5-0.6,0.4-1.5-0.1-2.1c0,0,0,0,0,0c0,0,0,0,0,0        c-0.8-0.1-1.6,0.4-1.8,1.1c-0.3-0.1-0.4-0.5-0.6-0.6c-0.2-0.2-0.6-0.1-0.8,0c-0.8,0.4-1.2,1.3-1,2.2c-0.4-0.3-0.9-0.2-1.3,0.1        c-0.3,0.3-0.5,0.8-0.5,1.3C88,35.3,88.1,35.8,88.3,36.2z" fill="#4FBF9F"/><polygon fill="#3DA69B" points="85.9,45.5 92.9,32.9 93,33 86.5,45.9       "/></g><g><g><path d="M98.3,45.5c0-0.5-0.3-1-0.7-1.2c-0.2-0.1-0.5-0.2-0.5-0.4c0-0.1,0-0.2,0-0.3c0.1-0.2,0-0.5-0.1-0.6         c-0.1-0.2-0.3-0.3-0.6-0.3c-0.2,0-0.4,0.2-0.5,0c0-0.1,0-0.2,0-0.3c0.1-0.3-0.3-0.6-0.6-0.7c-0.3,0-0.7,0.1-1,0.2         c-0.1,0-0.1,0-0.2,0c-0.1,0-0.1-0.1-0.1-0.2c-0.2-0.3-0.6-0.3-1-0.3c-1.4,0-2.6,0.5-3.2,0.9c-0.3,0.2-0.6,0.5-1,0.8         c-0.3,0.3-0.7,0.5-1,0.8c-0.6,0.6-1.1,1.2-1.6,1.9l1.2,0.6c0.1-0.1,0.2-0.1,0.3-0.2c0.5-0.2,1.1-0.4,1.5-0.1         c0.3,0.1,0.5,0.4,0.7,0.6c0.2,0.2,0.4,0.5,0.7,0.6c0.3,0.1,0.7,0,0.8-0.2c0-0.1,0.1-0.1,0.1-0.2c0.2-0.1,0.4,0.1,0.5,0.2         c0.2,0.3,0.4,0.5,0.7,0.6s0.7,0,0.8-0.3c0.1-0.1,0.1-0.3,0.2-0.4c0.1,0,0.1,0,0.2,0c0.3,0.1,0.6,0.3,0.9,0.4         c0.3,0.1,0.7,0.2,0.9,0c0.2-0.2,0.2-0.4,0.4-0.6c0.3-0.3,0.7-0.2,1-0.3C97.9,46.5,98.3,46,98.3,45.5z" fill="#4FBF9F"/><path d="M94.7,44.5c0,0-0.2-0.1-0.4-0.1c-0.3-0.1-0.7-0.2-1.2-0.3c-0.2,0-0.5-0.1-0.8-0.1c-0.3,0-0.6,0-0.9,0         c-0.2,0-0.3,0-0.5,0c-0.2,0-0.3,0-0.5,0.1c-0.3,0-0.7,0.1-1,0.2c-0.2,0.1-0.3,0.1-0.5,0.2c-0.2,0.1-0.3,0.1-0.5,0.2         c-0.1,0-0.1,0.1-0.2,0.1c-0.1,0-0.1,0.1-0.2,0.1c-0.1,0-0.1,0.1-0.2,0.1c-0.1,0-0.1,0.1-0.2,0.1c-0.1,0-0.1,0.1-0.2,0.1         c-0.1,0-0.1,0.1-0.2,0.1c-0.1,0-0.1,0.1-0.2,0.1c-0.1,0.1-0.1,0.1-0.2,0.1c-0.1,0.1-0.2,0.2-0.3,0.3l0.5,0.3         c0,0,0.1-0.1,0.1-0.1c0,0,0.1-0.1,0.1-0.1c0.1,0,0.1-0.1,0.2-0.1c0.1,0,0.1-0.1,0.2-0.1c0.1,0,0.1-0.1,0.2-0.1         c0.1,0,0.1-0.1,0.2-0.1c0.1,0,0.1-0.1,0.2-0.1c0.1,0,0.1-0.1,0.2-0.1c0.1,0,0.1-0.1,0.2-0.1c0.1-0.1,0.3-0.1,0.4-0.2         c0.1-0.1,0.3-0.1,0.4-0.2c0.3-0.1,0.6-0.2,0.9-0.3c0.2,0,0.3-0.1,0.5-0.1c0.2,0,0.3,0,0.5-0.1c0.3,0,0.6,0,0.9,0         c0.3,0,0.5,0,0.8,0.1c0.5,0.1,0.9,0.1,1.2,0.2c0.3,0.1,0.4,0.1,0.4,0.1L94.7,44.5z" fill="#3DA69B"/></g><g><path d="M82.1,41.9c0,0.1-0.1,0.1-0.1,0.2c-0.1,0.3,0,0.6,0.3,0.8c0.3,0.2,0.6,0.2,0.9,0.2         c0.3,0,0.6,0,0.9,0.2c0.5,0.2,0.7,0.8,0.8,1.3c0,0.1,0,0.2,0,0.4l1.2,0.6c0.3-0.8,0.5-1.6,0.7-2.4c0.1-0.4,0.1-0.9,0.1-1.3         c0-0.4,0.1-0.8,0.1-1.2c0-0.7-0.2-2-1.1-3.1c-0.2-0.3-0.4-0.7-0.8-0.7c-0.1,0-0.1,0-0.2,0c-0.1,0-0.1-0.1-0.1-0.2         c-0.1-0.3-0.2-0.7-0.4-0.9c-0.2-0.2-0.7-0.3-0.9-0.1c-0.1,0.1-0.1,0.2-0.2,0.2c-0.2,0-0.2-0.2-0.3-0.4         c-0.1-0.2-0.3-0.3-0.5-0.3c-0.2,0-0.4,0.1-0.6,0.3c-0.1,0.1-0.1,0.2-0.2,0.2c-0.2,0.1-0.4-0.1-0.6-0.2         c-0.4-0.3-1-0.2-1.4,0.1C79.1,36,79,36.5,79.1,37c0.1,0.3,0.4,0.7,0.3,1c0,0.2-0.2,0.4-0.3,0.7c-0.1,0.3,0.2,0.6,0.5,0.8         c0.3,0.2,0.6,0.3,0.9,0.5c0.1,0,0.1,0.1,0.1,0.2c0,0.1-0.1,0.3-0.2,0.4c-0.2,0.3,0,0.7,0.2,0.9c0.2,0.2,0.6,0.3,0.9,0.3         C81.8,41.7,82.1,41.7,82.1,41.9z" fill="#4FBF9F"/><path d="M83.4,39.2c0.2,0.2,0.3,0.4,0.5,0.6c0.2,0.2,0.3,0.5,0.5,0.7c0.1,0.1,0.1,0.3,0.2,0.4         c0.1,0.1,0.1,0.3,0.2,0.4c0.1,0.3,0.2,0.6,0.3,0.9c0,0.2,0.1,0.3,0.1,0.5c0,0.2,0.1,0.3,0.1,0.5c0,0.1,0,0.2,0,0.2         c0,0.1,0,0.2,0,0.2c0,0.1,0,0.2,0,0.2c0,0.1,0,0.1,0,0.2c0,0.1,0,0.1,0,0.2c0,0.1,0,0.1,0,0.2c0,0.1,0,0.1,0,0.2         c0,0.1,0,0.1,0,0.2c0,0.1,0,0.1,0,0.2l0.5,0.3c0-0.1,0-0.2,0.1-0.4c0-0.1,0-0.1,0-0.2c0-0.1,0-0.2,0-0.2c0-0.1,0-0.2,0-0.2         c0-0.1,0-0.2,0-0.2c0-0.1,0-0.2,0-0.2c0-0.1,0-0.2,0-0.2c0-0.1,0-0.2,0-0.2c0-0.1,0-0.2,0-0.2c0-0.2-0.1-0.3-0.1-0.5         c0-0.2-0.1-0.3-0.1-0.5c-0.1-0.3-0.2-0.6-0.4-0.9c-0.1-0.2-0.1-0.3-0.2-0.4c-0.1-0.1-0.2-0.3-0.2-0.4         c-0.2-0.3-0.3-0.5-0.5-0.7c-0.2-0.2-0.4-0.4-0.5-0.6c-0.3-0.4-0.7-0.6-0.9-0.8c-0.2-0.2-0.4-0.3-0.4-0.3l-0.1,0.1         c0,0,0.1,0.1,0.3,0.3C82.8,38.6,83.1,38.9,83.4,39.2z" fill="#3DA69B"/></g></g></g><path d="M87.9,46.8c-0.1-0.1-0.2-0.2-0.4-0.3l-2.7-1.4c-0.1-0.1-0.3-0.1-0.5-0.1c-2.4-0.1-5.1,1.6-6.5,4.4      c-1.5,2.9-6.2,19.9-7.8,26c-0.1,0.5,0.5,0.9,0.9,0.5c4.1-4.8,15.5-18.2,17-21.1C89.5,51.8,89.4,48.7,87.9,46.8z" fill="#ECF0F3"/><path d="M85.4,50.6c0,0,1.6-0.2,2.7,1.4C88.1,52,86.6,52,85.4,50.6z" fill="#D5D6DC"/><path d="M80,49.4c0,0,1.6-0.2,2.7,1.4C82.7,50.8,81.1,50.8,80,49.4z" fill="#D5D6DC"/><path d="M81.2,54.1c0,0,1.6-0.2,2.7,1.4C83.9,55.5,82.3,55.5,81.2,54.1z" fill="#D5D6DC"/><path d="M77.1,56.7c0,0,1.6-0.2,2.7,1.4C79.8,58.2,78.2,58.2,77.1,56.7z" fill="#D5D6DC"/><path d="M76.9,61.3c0,0,1.6-0.2,2.7,1.4C79.6,62.8,78,62.8,76.9,61.3z" fill="#D5D6DC"/><path d="M74.1,64.6c0,0,1.2-0.1,2,1.1C76.1,65.6,75,65.6,74.1,64.6z" fill="#D5D6DC"/><path d="M73.3,68.5c0,0,1.2-0.1,2,1.1C75.3,69.6,74.2,69.6,73.3,68.5z" fill="#D5D6DC"/></g><g><rect fill="#3DA69B" height="18.1" transform="matrix(-1 -4.042050e-003 4.042050e-003 -1 134.5632 77.6511)" width="3" x="65.9" y="29.6"/><polygon fill="#4FBF9F" points="73.6,30.2 70.6,29.5 67.3,43 64,29.5 61.1,30.2 65.4,47.9 67.3,47.4 69.2,47.9     "/><path d="M73.4,55.4c-2.4-1.4-3.9-3.9-3.9-6.7v-1.8h-4.3v1.6l0,0.2c0,2.8-1.5,5.3-3.9,6.7c-2.9,1.7-4.8,4.7-4.8,8      c0,5.3,4.9,9.6,10.9,9.6c6,0,10.9-4.3,10.9-9.6C78.2,60.1,76.3,57.1,73.4,55.4z" fill="#ECF0F3"/><path d="M71.3,55.4c-1.6-1.4-2.6-3.9-2.6-6.7l0-1.8h-2.8l0,1.8c0,2.8-1,5.3-2.6,6.7c-1.9,1.7-3.2,4.7-3.2,8      c0,5.3,3.2,9.6,7.2,9.6s7.2-4.3,7.2-9.6C74.5,60.1,73.3,57.1,71.3,55.4z" fill="#D5D6DC"/><path d="M67.9,48.7l0-1.8h-1.1l0,1.8c0,2.8-0.4,5.3-1,6.7c-0.7,1.7-1.2,4.7-1.2,8c0,5.3,1.2,9.6,2.8,9.6      c1.5,0,2.8-4.3,2.8-9.6c0-3.3-0.5-6.3-1.2-8C68.3,54,67.9,51.5,67.9,48.7z" fill="#ECF0F3"/></g></g><g><path d="M32.4,61.6l4.8,33.7c0.3,1.8,1.8,3.1,3.6,3.1h46.2c1.8,0,3.3-1.3,3.6-3.1l4.8-33.7H32.4z" fill="#ECF0F3"/><g><path d="M44.2,69.6c-1.4,0-2.5,1.3-2.3,2.8l1.9,17.9c0.1,1.3,1.3,2.3,2.6,2.3c1.3,0,2.2-1,2.1-2.3L47,72.4      C46.9,70.8,45.6,69.6,44.2,69.6z" fill="#D5D6DC"/><path d="M57.3,69.6c-1.4,0-2.6,1.3-2.5,2.8l0.8,17.9c0.1,1.3,1.1,2.3,2.4,2.3c1.3,0,2.3-1,2.3-2.3l-0.3-17.9      C59.9,70.8,58.7,69.6,57.3,69.6z" fill="#D5D6DC"/><path d="M70.4,69.6c-1.4,0-2.6,1.3-2.7,2.8l-0.3,17.9c0,1.3,1,2.3,2.3,2.3c1.3,0,2.4-1,2.4-2.3l0.8-17.9      C72.9,70.8,71.8,69.6,70.4,69.6z" fill="#D5D6DC"/><path d="M83.5,69.6c-1.4,0-2.7,1.3-2.8,2.8l-1.4,17.9c-0.1,1.3,0.9,2.3,2.1,2.3c1.3,0,2.4-1,2.6-2.3l1.9-17.9      C86,70.8,84.9,69.6,83.5,69.6z" fill="#D5D6DC"/></g></g><path d="M96.6,55.1H31c-0.8,0-1.4,0.6-1.4,1.4v5.5c0,0.8,0.6,1.4,1.4,1.4h65.7c0.8,0,1.4-0.6,1.4-1.4v-5.5    C98.1,55.7,97.4,55.1,96.6,55.1z" fill="#E66454"/><path d="M67.5,59c-1.2-1.1-2.9-1.2-3.9-0.1c-1,1-0.9,2.7,0.1,3.9l26.9,29.9c1.2,1.3,3.1,1.5,4.2,0.4l2.9-2.9    c1.1-1.1,0.9-3-0.4-4.2L67.5,59z" fill="#647A8A"/></g></g></svg>