<?xml version="1.0" ?><!DOCTYPE svg  PUBLIC '-//W3C//DTD SVG 1.1//EN'  'http://www.w3.org/Graphics/SVG/1.1/DTD/svg11.dtd'><svg height="64px" style="shape-rendering:geometricPrecision; text-rendering:geometricPrecision; image-rendering:optimizeQuality; fill-rule:evenodd; clip-rule:evenodd" version="1.1" viewBox="0 0 64000 64000" width="64px" xml:space="preserve" xmlns="http://www.w3.org/2000/svg" xmlns:xlink="http://www.w3.org/1999/xlink"><defs><style type="text/css">
   <![CDATA[
    .fil9 {fill:none}
    .fil5 {fill:#7D959E}
    .fil3 {fill:#ADD2ED}
    .fil4 {fill:#E4EFF7}
    .fil2 {fill:#E67C89}
    .fil6 {fill:#F2E796}
    .fil0 {fill:#F5EFEB}
    .fil1 {fill:#FA96A2}
    .fil7 {fill:#FCF3B3}
    .fil8 {fill:#396182;fill-rule:nonzero}
   ]]>
  </style><clipPath id="id0"><path d="M32000 0c-17673,0 -32000,14327 -32000,32000 0,17673 14327,32000 32000,32000 17673,0 32000,-14327 32000,-32000 0,-17673 -14327,-32000 -32000,-32000z"/></clipPath></defs><g id="Layer_x0020_1"><path class="fil0" d="M32000 0c-17673,0 -32000,14327 -32000,32000 0,17673 14327,32000 32000,32000 17673,0 32000,-14327 32000,-32000 0,-17673 -14327,-32000 -32000,-32000z"/><g style="clip-path:url(#id0)"><g id="_667714576"><path class="fil1" d="M1111 42754l28398 0c1155,0 2100,945 2100,2099l0 4004c0,1155 -945,2100 -2100,2100l-12673 0c0,-3031 -2457,-5488 -5488,-5488 -3031,0 -5488,2457 -5488,5488l-4749 0c-1154,0 -2099,-945 -2099,-2100l0 -4004c0,-1154 945,-2099 2099,-2099z" id="1"/><path class="fil2" d="M31609 48680l0 177c0,1155 -945,2100 -2100,2100l-12673 0c0,-803 -173,-1566 -483,-2253l14898 0c121,0 241,-9 358,-24zm-25266 24c-310,687 -483,1450 -483,2253l-4749 0c-1154,0 -2099,-945 -2099,-2100l0 -177c117,16 237,24 358,24l6973 0z"/><path class="fil3" d="M41733 26347l-8276 0c-1018,0 -1848,830 -1848,1849l0 20913c0,1018 830,1848 1848,1848l2180 0c0,-3031 2457,-5488 5488,-5488 3031,0 5488,2457 5488,5488l2095 0c1018,0 1848,-830 1848,-1848l0 -11439 -7305 -10528c-356,-514 -894,-795 -1518,-795z"/><polygon class="fil4" points="46703,37670 41040,29163 34971,29163 34971,37670 "/><circle class="fil5" cx="41125" cy="50957" r="5488"/><circle class="fil4" cx="41125" cy="50957" r="1617"/><circle class="fil5" cx="11348" cy="50957" r="5488"/><circle class="fil4" cx="11348" cy="50957" r="1617"/><rect class="fil6" height="19267" width="21259" x="4906" y="23486"/><rect class="fil7" height="3154" width="21259" x="4906" y="23486"/><polygon class="fil7" points="13040,23486 18031,23486 18031,29783 15550,28041 13040,29783 "/><rect class="fil6" height="3466" rx="519" ry="519" width="3354" x="47202" y="42926"/><g><path class="fil8" d="M41733 26847l-8276 0c-371,0 -709,152 -953,396 -244,244 -395,582 -395,953l0 20913c0,371 151,708 395,952 244,244 582,396 953,396l1701 0c120,-1454 760,-2761 1733,-3734 1083,-1083 2581,-1754 4234,-1754 1653,0 3151,671 4234,1754l27 30c958,970 1586,2265 1706,3704l1616 0c371,0 708,-152 952,-396 244,-244 396,-581 396,-952l0 -11285 -7215 -10399c-131,-189 -294,-335 -479,-432 -183,-95 -396,-146 -629,-146zm-8276 -1000l8276 0c391,0 760,91 1090,264 329,172 614,424 838,748l7282 10495c71,86 113,196 113,316l0 11439c0,647 -264,1234 -689,1659 -425,425 -1012,689 -1659,689l-2095 0c-277,0 -500,-224 -500,-500 0,-1366 -550,-2605 -1437,-3505l-24 -22c-902,-902 -2150,-1461 -3527,-1461 -1378,0 -2625,559 -3527,1461 -902,902 -1461,2149 -1461,3527 0,276 -224,500 -500,500l-2180 0c-647,0 -1235,-264 -1660,-689 -425,-425 -688,-1012 -688,-1659l0 -20913c0,-647 263,-1235 688,-1660 425,-425 1013,-689 1660,-689z"/><path class="fil8" d="M45771 37170l-4997 -7507 -5303 0 0 7507 10300 0zm-4315 -8282l5642 8475c66,85 105,191 105,307 0,276 -224,500 -500,500l-11732 0c-276,0 -500,-224 -500,-500l0 -8507c0,-276 224,-500 500,-500l6069 0 0 1c161,0 320,79 416,224z"/><path class="fil8" d="M41125 44969c1653,0 3151,671 4234,1754l27 30c1067,1081 1727,2566 1727,4204 0,1653 -671,3151 -1754,4234 -1083,1083 -2581,1754 -4234,1754 -1652,0 -3148,-671 -4232,-1754l-1 -1 -1 1c-1083,-1083 -1754,-2581 -1754,-4234 0,-1653 671,-3151 1754,-4234 1083,-1083 2581,-1754 4234,-1754zm3527 2461c-902,-902 -2150,-1461 -3527,-1461 -1378,0 -2625,559 -3527,1461 -902,902 -1461,2149 -1461,3527 0,1377 559,2625 1461,3527l-1 1c902,901 2150,1460 3528,1460 1377,0 2625,-559 3527,-1461 902,-902 1461,-2150 1461,-3527 0,-1366 -550,-2605 -1437,-3505l-24 -22z"/><path class="fil8" d="M41125 48840c584,0 1113,237 1496,620 383,383 620,913 620,1497 0,584 -237,1113 -620,1496 -383,383 -912,620 -1496,620 -584,0 -1114,-237 -1497,-620 -383,-383 -620,-912 -620,-1496 0,-584 237,-1114 620,-1497 383,-383 913,-620 1497,-620zm789 1327c-201,-202 -481,-327 -789,-327 -308,0 -588,125 -790,327 -202,202 -327,482 -327,790 0,308 125,588 327,789 202,202 482,327 790,327 308,0 588,-125 789,-327 202,-201 327,-481 327,-789 0,-308 -125,-588 -327,-790z"/><path class="fil8" d="M11348 44969c1653,0 3151,671 4234,1754l28 30c1066,1081 1726,2566 1726,4204 0,1653 -671,3151 -1754,4234 -1083,1083 -2581,1754 -4234,1754 -1652,0 -3148,-671 -4232,-1754l-1 -1 -1 1c-1083,-1083 -1754,-2581 -1754,-4234 0,-1653 671,-3151 1754,-4234 1083,-1083 2581,-1754 4234,-1754zm3527 2461c-902,-902 -2149,-1461 -3527,-1461 -1377,0 -2625,559 -3527,1461 -902,902 -1461,2149 -1461,3527 0,1377 559,2625 1461,3527l-1 1c902,901 2150,1460 3528,1460 1378,0 2625,-559 3527,-1461 902,-902 1461,-2150 1461,-3527 0,-1366 -549,-2605 -1437,-3505l-24 -22z"/><path class="fil8" d="M11348 48840c584,0 1114,237 1497,620 383,383 620,913 620,1497 0,584 -237,1113 -620,1496 -383,383 -913,620 -1497,620 -584,0 -1114,-237 -1496,-620 -383,-383 -620,-912 -620,-1496 0,-584 237,-1114 620,-1497 382,-383 912,-620 1496,-620zm790 1327c-202,-202 -481,-327 -790,-327 -308,0 -588,125 -790,327 -201,202 -326,482 -326,790 0,308 125,588 326,789 202,202 482,327 790,327 308,0 588,-125 790,-327 201,-201 326,-481 326,-789 0,-308 -125,-588 -326,-790z"/><path class="fil8" d="M34971 40955c-276,0 -500,-224 -500,-500 0,-276 224,-500 500,-500l1738 0c276,0 500,224 500,500 0,276 -224,500 -500,500l-1738 0z"/><path class="fil8" d="M5406 42754c0,276 -224,500 -500,500 -276,0 -500,-224 -500,-500l0 -19268c0,-276 224,-500 500,-500l21259 0c276,0 500,224 500,500l0 19268c0,276 -224,500 -500,500 -276,0 -500,-224 -500,-500l0 -18768 -20259 0 0 18768z"/><path class="fil8" d="M17531 23486c0,-276 224,-500 500,-500 276,0 500,224 500,500l0 6297c0,276 -224,500 -500,500 -118,0 -227,-40 -312,-109l-2171 -1524 -2225 1543c-226,157 -537,100 -693,-127 -60,-86 -88,-185 -88,-283l-2 0 0 -6297c0,-276 224,-500 500,-500 276,0 500,224 500,500l0 5344 1703 -1182c169,-132 410,-144 595,-15l1693 1189 0 -5336z"/><path class="fil8" d="M-4384 33012c-276,0 -500,-224 -500,-500 0,-276 224,-500 500,-500l5604 0c276,0 500,224 500,500 0,276 -224,500 -500,500l-5604 0z"/><path class="fil8" d="M-9351 37692c-277,0 -501,-224 -501,-500 0,-276 224,-500 501,-500l359 0c276,0 500,224 500,500 0,276 -224,500 -500,500l-359 0zm3232 0c-276,0 -500,-224 -500,-500 0,-276 224,-500 500,-500l7339 0c276,0 500,224 500,500 0,276 -224,500 -500,500l-7339 0z"/><path class="fil8" d="M50037 46891l-2316 0c-279,0 -534,-115 -718,-299l-2 -2c-184,-184 -299,-438 -299,-718l0 -2427c0,-281 115,-536 299,-720 184,-185 440,-299 720,-299l2316 0 0 1000 -2316 0c-4,0 -9,2 -13,6 -3,3 -6,8 -6,13l0 2427c0,6 2,11 5,14 3,3 9,5 14,5l2316 0 0 1000z"/><path class="fil9" d="M5860 50957l-4749 0c-1154,0 -2099,-945 -2099,-2100l0 -4004c0,-1154 945,-2099 2099,-2099l28398 0c1155,0 2100,945 2100,2099m0 4004c0,1155 -945,2100 -2100,2100l-12673 0"/><path class="fil8" d="M5860 50457c276,0 500,224 500,500 0,276 -224,500 -500,500l-4749 0c-712,0 -1362,-293 -1834,-763l-2 -2c-471,-472 -763,-1122 -763,-1835l0 -4004c0,-713 292,-1362 763,-1834l2 -2c472,-471 1122,-763 1834,-763l28398 0c714,0 1363,292 1834,763l2 2 9 8c466,471 755,1117 755,1826 0,276 -224,500 -500,500 -277,0 -500,-224 -500,-500 0,-439 -180,-840 -468,-1129l-2 -2c-290,-289 -690,-468 -1130,-468l-28398 0c-440,0 -840,179 -1129,468l-2 2c-289,289 -468,689 -468,1129l0 4004c0,441 179,841 468,1130l2 2c289,288 689,468 1129,468l4749 0zm25249 -1600c0,-276 223,-500 500,-500 276,0 500,224 500,500 0,716 -293,1366 -764,1837 -470,470 -1121,763 -1836,763l-12673 0c-276,0 -500,-224 -500,-500 0,-276 224,-500 500,-500l12673 0c440,0 840,-180 1130,-470 289,-290 470,-690 470,-1130z"/><path class="fil8" d="M19879 39856c-277,0 -501,-224 -501,-500 0,-276 224,-500 501,-500l2641 0c276,0 500,224 500,500 0,276 -224,500 -500,500l-2641 0z"/><path class="fil8" d="M2650 56945c-277,0 -500,-224 -500,-500 0,-277 223,-500 500,-500l24074 0c276,0 500,223 500,500 0,276 -224,500 -500,500l-24074 0zm27926 0c-276,0 -500,-224 -500,-500 0,-277 224,-500 500,-500l770 0c276,0 500,223 500,500 0,276 -224,500 -500,500l-770 0zm2759 0c-276,0 -500,-224 -500,-500 0,-277 224,-500 500,-500l15241 0c276,0 500,223 500,500 0,276 -224,500 -500,500l-15241 0z"/></g></g></g><path class="fil9" d="M32000 0c-17673,0 -32000,14327 -32000,32000 0,17673 14327,32000 32000,32000 17673,0 32000,-14327 32000,-32000 0,-17673 -14327,-32000 -32000,-32000z"/></g></svg>