<?xml version="1.0" ?><svg id="Layer_1" style="enable-background:new 0 0 127.8 128;" version="1.1" viewBox="0 0 127.8 128" xml:space="preserve" xmlns="http://www.w3.org/2000/svg" xmlns:xlink="http://www.w3.org/1999/xlink"><style type="text/css">
	.st0{fill:#FEDE31;}
	.st1{fill:#5FE0ED;}
	.st2{fill:#353535;}
</style><title/><desc/><g id="Layer_2"><g><path class="st0" d="M87.6,33.3c22.8,1.2,40.4,20.7,39.2,43.5c-0.4,7.6-2.9,14.9-7.1,21.2c-1.2,1.7-1.4,3.9-0.6,5.8l5,11.4    l-11.5-5.5c-1.9-0.9-4-0.7-5.8,0.3c-19.6,11.8-45,5.5-56.8-14.1S44.5,51,64,39.2C71.1,34.9,79.3,32.9,87.6,33.3z"/><path class="st1" d="M84,44.8c0.2-3.9-0.1-7.7-1-11.5c-22.7,1.4-40.1,20.8-38.9,43.5c0.1,2.4,0.5,4.8,1,7.2c0.1,0,0.1,0,0.2,0    C66.2,82.6,82.8,65.7,84,44.8z"/><path class="st2" d="M2,85.3l6.1-13.9c0.7-1.6,0.5-3.4-0.5-4.9C-5.6,47.2-0.6,20.8,18.7,7.6c6.4-4.4,13.9-6.9,21.7-7.3l0,0    C63.8-0.9,83.8,17,85,40.4S68.2,83.7,44.9,85c-8.5,0.4-16.9-1.7-24.1-6c-1.5-0.9-3.3-1-4.8-0.3L2,85.3z M18,76.2    c1.3,0,2.6,0.4,3.7,1.1c19.1,11.5,43.9,5.4,55.5-13.7S82.6,19.6,63.5,8c-6.9-4.2-14.9-6.2-23-5.7l0,0C18.2,3.4,1.1,22.4,2.3,44.7    c0.4,7.4,2.8,14.5,7,20.7c1.4,2,1.7,4.6,0.7,6.8l-3.9,9l9-4.3C16,76.4,17,76.2,18,76.2L18,76.2z"/><g><path class="st2" d="M32,47c-7.2,0-13-5.8-13-13s5.8-13,13-13s13,5.8,13,13C45,41.2,39.2,47,32,47z M32,23c-6.1,0-11,4.9-11,11     S26,45,32,45s11-4.9,11-11C43,28,38.1,23,32,23z"/><rect class="st2" height="8.5" transform="matrix(0.7071 -0.7071 0.7071 0.7071 -18.198 41.1155)" width="2" x="39.5" y="38.3"/></g><g><polygon class="st2" points="107.1,92.4 98,72.4 88.9,92.4 87.1,91.6 98,67.6 108.9,91.6    "/><rect class="st2" height="2" width="12" x="92" y="83"/></g><path class="st2" d="M79.5,108.8l-9.3-5.4l12.3-6.7L79.5,108.8z M74.3,103.4l3.9,2.3l1.3-5.1L74.3,103.4z"/><path class="st2" d="M24.7,128c-7.5,0-13.8-2.1-18.3-6.5c-7-7-8.3-18.9-3.9-33.7l1.9,0.6c-4.2,14-3,25.3,3.4,31.7    c12,12,39.6,5.6,67.1-15.5l1.2,1.6C57.7,120.4,39,128,24.7,128z"/><path class="st2" d="M122.2,48.6l-1.8-0.8c3.6-8.5,5.5-16.5,5.5-23.2c0-7.1-2-12.7-5.9-16.7c-8.8-8.8-26.3-7.7-46.9,2.8l-0.9-1.8    C93.5-2,111.9-3,121.3,6.5c4.3,4.3,6.5,10.4,6.5,18.1C127.8,31.7,125.9,39.8,122.2,48.6z"/><g><rect class="st2" height="8" width="2" x="30.1" y="95.1"/><rect class="st2" height="2" width="8" x="27.1" y="98.1"/></g><g><rect class="st2" height="8" width="2" x="102.1" y="116.1"/><rect class="st2" height="2" width="8" x="99.1" y="119.1"/></g><g><rect class="st2" height="8" width="2" x="102.1" y="16"/><rect class="st2" height="2" width="8" x="99.1" y="19"/></g></g></g></svg>