<?xml version="1.0" ?><svg id="Layer_1" style="enable-background:new 0 0 24 24;" version="1.1" viewBox="0 0 24 24" xml:space="preserve" xmlns="http://www.w3.org/2000/svg" xmlns:xlink="http://www.w3.org/1999/xlink"><title/><g id="Christmas_Date"><g><g><path d="M1.5,21c0,0.828,0.672,1.5,1.5,1.5h14.5l5-5v-9h-21V21z" style="fill:#F8F8F8;"/><rect height="1.5" style="opacity:0.1;enable-background:new    ;" width="21" x="1.5" y="8.5"/><path d="M21,3.5H3C2.172,3.5,1.5,4.172,1.5,5v3.5h21V5C22.5,4.172,21.828,3.5,21,3.5z" style="fill:#D51C29;"/><path d="M3,3.5h18c0.828,0,1.5,0.672,1.5,1.5l0,0l0,0h-21l0,0l0,0     C1.5,4.172,2.172,3.5,3,3.5z" style="opacity:0.2;fill:#FFFFFF;enable-background:new    ;"/><path d="M22.5,17.5H19c-0.828,0-1.5,0.672-1.5,1.5v3.5L22.5,17.5z" id="_Path_" style="opacity:0.1;enable-background:new    ;"/><g><path d="M21,3h-3V1.5C18,1.224,17.776,1,17.5,1S17,1.224,17,1.5V3H8V1.5C8,1.224,7.776,1,7.5,1      S7,1.224,7,1.5V3H3C1.895,3,1,3.895,1,5v16c0,1.105,0.895,2,2,2h14.5c0.132-0.002,0.258-0.056,0.35-0.15l5-5      C22.946,17.759,23,17.632,23,17.5l0,0V5C23,3.895,22.105,3,21,3z M3,4h4v1C6.448,5,6,5.448,6,6s0.448,1,1,1      c0.483,0.01,0.904-0.327,1-0.8C8.013,6.134,8.013,6.066,8,6V4h9v1c-0.552,0-1,0.448-1,1s0.448,1,1,1      c0.483,0.01,0.904-0.327,1-0.8c0.013-0.066,0.013-0.134,0-0.2V4h3c0.552,0,1,0.448,1,1v3H2V5C2,4.448,2.448,4,3,4z M17,19v3H3      c-0.552,0-1-0.448-1-1V9h20v8h-3C17.895,17,17,17.895,17,19z M18,21.29V19c0-0.552,0.448-1,1-1h2.29L18,21.29z" style="fill:#303C42;"/><path d="M11,14c0-1.105-0.895-2-2-2s-2,0.895-2,2c0,0.276,0.224,0.5,0.5,0.5S8,14.276,8,14      c0-0.552,0.448-1,1-1s1,0.448,1,1c-0.001,0.525-0.188,1.032-0.53,1.43l-2.35,2.74c-0.182,0.207-0.162,0.523,0.046,0.706      C7.258,18.957,7.377,19.001,7.5,19h3c0.276,0,0.5-0.224,0.5-0.5S10.776,18,10.5,18H8.59l1.64-1.92      C10.726,15.501,11,14.763,11,14z" style="fill:#303C42;"/><path d="M15.5,13c0.276,0,0.5-0.224,0.5-0.5S15.776,12,15.5,12H13c-0.244,0.002-0.451,0.179-0.49,0.42      l-0.5,3c-0.05,0.271,0.129,0.532,0.4,0.583c0.164,0.031,0.333-0.023,0.45-0.143c0.251-0.242,0.592-0.368,0.94-0.35      c0.66,0.005,1.195,0.54,1.2,1.2V17c0,0.552-0.448,1-1,1s-1-0.448-1-1c0-0.276-0.224-0.5-0.5-0.5S12,16.724,12,17      c0,1.105,0.895,2,2,2s2-0.895,2-2v-0.29c-0.046-1.264-1.107-2.252-2.371-2.206c-0.158,0.006-0.315,0.028-0.469,0.066L13.42,13      H15.5z" style="fill:#303C42;"/></g><linearGradient gradientTransform="matrix(1 0 0 -1 0 24)" gradientUnits="userSpaceOnUse" id="SVGID_1_" x1="-0.2289" x2="22.8411" y1="16.8097" y2="6.0497"><stop offset="0" style="stop-color:#FFFFFF;stop-opacity:0.2"/><stop offset="1" style="stop-color:#FFFFFF;stop-opacity:0"/></linearGradient><path d="M21,3h-3V1.5C18,1.224,17.776,1,17.5,1S17,1.224,17,1.5V3H8V1.5C8,1.224,7.776,1,7.5,1     S7,1.224,7,1.5V3H3C1.895,3,1,3.895,1,5v16c0,1.105,0.895,2,2,2h14.5c0.063,0.012,0.127,0.012,0.19,0h0.07l0.09-0.06l5-5     c0.06-0.065,0.101-0.144,0.12-0.23v-0.06c0.001-0.02,0.001-0.04,0-0.06V5C22.97,3.907,22.093,3.016,21,3z" style="fill:url(#SVGID_1_);"/></g><linearGradient gradientTransform="matrix(1 0 0 -1 0 24)" gradientUnits="userSpaceOnUse" id="SVGID_2_" x1="-0.2289" x2="22.8411" y1="16.8097" y2="6.0497"><stop offset="0" style="stop-color:#FFFFFF;stop-opacity:0.2"/><stop offset="1" style="stop-color:#FFFFFF;stop-opacity:0"/></linearGradient><path d="M21,3h-3V1.5C18,1.224,17.776,1,17.5,1S17,1.224,17,1.5V3H8V1.5C8,1.224,7.776,1,7.5,1    S7,1.224,7,1.5V3H3C1.895,3,1,3.895,1,5v16c0,1.105,0.895,2,2,2h14.5c0.063,0.012,0.127,0.012,0.19,0h0.07l0.09-0.06l5-5    c0.06-0.065,0.101-0.144,0.12-0.23v-0.06c0.001-0.02,0.001-0.04,0-0.06V5C22.97,3.907,22.093,3.016,21,3z" style="fill:url(#SVGID_2_);"/></g></g></svg>