<?xml version="1.0" ?><!DOCTYPE svg  PUBLIC '-//W3C//DTD SVG 1.1//EN'  'http://www.w3.org/Graphics/SVG/1.1/DTD/svg11.dtd'><svg enable-background="new 0 0 128 128" height="128px" id="Layer_1" version="1.1" viewBox="0 0 128 128" width="128px" xml:space="preserve" xmlns="http://www.w3.org/2000/svg" xmlns:xlink="http://www.w3.org/1999/xlink"><g id="calendar_x5F_milestones"><path d="M114,34c0-4.4-3.6-8-8-8H22c-4.4,0-8,3.6-8,8v76c0,4.4,3.6,8,8,8h84c4.4,0,8-3.6,8-8V34z" fill="#EDEDED"/><path d="M114,30c0-4.4-3.6-8-8-8H22c-4.4,0-8,3.6-8,8v76c0,4.4,3.6,8,8,8h84c4.4,0,8-3.6,8-8V30z" fill="#D0D0D0"/><path d="M114,26c0-4.4-3.6-8-8-8H22c-4.4,0-8,3.6-8,8v76c0,4.4,3.6,8,8,8h75l17-17V26z" fill="#EDEDED"/><path d="M102,16H26c-6.617,0-12,5.383-12,12v13h100V28C114,21.383,108.617,16,102,16z" opacity="0.1"/><path d="M102,14H26c-6.617,0-12,5.383-12,12v13h100V26C114,19.383,108.617,14,102,14z" fill="#DD5345"/><circle cx="53.667" cy="25.5" fill="#1D2D39" r="5"/><circle cx="93" cy="25.5" fill="#1D2D39" r="5"/><circle cx="34" cy="25.5" fill="#1D2D39" r="5"/><circle cx="73.333" cy="25.5" fill="#1D2D39" r="5"/><path d="M114,93h-9.355c-4.4,0-7.645,3.245-7.645,7.645V110L114,93z" fill="#989898"/><path d="M34.385,14L31,25c0,1.657,1.343,3,3,3s3-1.343,3-3l3.385-11H34.385z" opacity="0.1"/><path d="M54.385,14L51,25c0,1.657,1.343,3,3,3s3-1.343,3-3l3.385-11H54.385z" opacity="0.1"/><path d="M73.385,14L70,25c0,1.657,1.343,3,3,3s3-1.343,3-3l3.385-11H73.385z" opacity="0.1"/><path d="M93.385,14L90,25c0,1.657,1.343,3,3,3s3-1.343,3-3l3.385-11H93.385z" opacity="0.1"/><path d="M34,28c-1.657,0-3-1.343-3-3V12c0-1.657,1.343-3,3-3s3,1.343,3,3v13C37,26.657,35.657,28,34,28z" fill="#F2BA34"/><path d="M54,28c-1.657,0-3-1.343-3-3V12c0-1.657,1.343-3,3-3s3,1.343,3,3v13C57,26.657,55.657,28,54,28z" fill="#F2BA34"/><path d="M73,28c-1.657,0-3-1.343-3-3V12c0-1.657,1.343-3,3-3s3,1.343,3,3v13C76,26.657,74.657,28,73,28z" fill="#F2BA34"/><path d="M93,28c-1.657,0-3-1.343-3-3V12c0-1.657,1.343-3,3-3s3,1.343,3,3v13C96,26.657,94.657,28,93,28z" fill="#F2BA34"/><path d="M37,25V12c0-1.657-1.343-3-3-3v19C35.657,28,37,26.657,37,25z" opacity="0.1"/><path d="M57,25V12c0-1.657-1.343-3-3-3v19C55.657,28,57,26.657,57,25z" opacity="0.1"/><path d="M76,25V12c0-1.657-1.343-3-3-3v19C74.657,28,76,26.657,76,25z" opacity="0.1"/><path d="M96,25V12c0-1.657-1.343-3-3-3v19C94.657,28,96,26.657,96,25z" opacity="0.1"/><circle cx="31" cy="59" fill="#989898" r="4"/><circle cx="48" cy="59" fill="#989898" r="4"/><circle cx="65" cy="59" fill="#989898" r="4"/><circle cx="99" cy="59" fill="#989898" r="4"/><circle cx="31" cy="75" fill="#989898" r="4"/><circle cx="65" cy="75" fill="#989898" r="4"/><circle cx="82" cy="75" fill="#989898" r="4"/><circle cx="99" cy="75" fill="#989898" r="4"/><circle cx="31" cy="91" fill="#989898" r="4"/><circle cx="48" cy="91" fill="#989898" r="4"/><circle cx="65" cy="91" fill="#989898" r="4"/><path d="M51.078,74.75l2.836-2.836c0.781-0.781,0.781-2.047,0-2.828s-2.047-0.781-2.828,0l-2.836,2.836   l-2.836-2.836c-0.781-0.781-2.047-0.781-2.828,0C42.195,69.477,42,69.988,42,70.5s0.195,1.023,0.586,1.414l2.836,2.836   l-2.836,2.836c-0.781,0.781-0.781,2.047,0,2.828C42.977,80.805,43.488,81,44,81s1.023-0.195,1.414-0.586l2.836-2.836l2.836,2.836   c0.781,0.781,2.047,0.781,2.828,0s0.781-2.047,0-2.828L51.078,74.75z" fill="#BA2C25"/><path d="M85.078,58.75l2.836-2.836c0.781-0.781,0.781-2.047,0-2.828s-2.047-0.781-2.828,0l-2.836,2.836   l-2.836-2.836c-0.781-0.781-2.047-0.781-2.828,0C76.195,53.477,76,53.988,76,54.5s0.195,1.023,0.586,1.414l2.836,2.836   l-2.836,2.836c-0.781,0.781-0.781,2.047,0,2.828C76.977,64.805,77.488,65,78,65s1.023-0.195,1.414-0.586l2.836-2.836l2.836,2.836   c0.781,0.781,2.047,0.781,2.828,0s0.781-2.047,0-2.828L85.078,58.75z" fill="#BA2C25"/></g></svg>