<?xml version="1.0" ?><!DOCTYPE svg  PUBLIC '-//W3C//DTD SVG 1.1//EN'  'http://www.w3.org/Graphics/SVG/1.1/DTD/svg11.dtd'><svg id="Layer_180" style="enable-background:new 0 0 243.7 243.7;" version="1.1" viewBox="0 0 243.7 243.7" xml:space="preserve" xmlns="http://www.w3.org/2000/svg" xmlns:xlink="http://www.w3.org/1999/xlink"><style type="text/css">
	.st0{fill:#F5F5F6;}
	.st1{fill:#003E53;}
	.st2{fill:#FF6D3B;}
	.st3{fill:#586C7A;}
	.st4{fill:#FFFFFF;}
	.st5{fill:#F4ECDA;}
	.st6{fill:#FCB504;}
	.st7{clip-path:url(#SVGID_2_);}
	.st8{fill:#E1EFFA;}
	.st9{fill:#EF7100;}
	.st10{fill:#45525B;}
	.st11{fill:#21D0DB;}
	.st12{fill:#1EA6C6;}
	.st13{fill:#23E5E5;}
	.st14{fill:#FCBB51;}
	.st15{fill:#FFD55C;}
	.st16{fill:#FFB251;}
	.st17{fill:#FFC958;}
	.st18{opacity:0.3;}
	.st19{fill:#FFA74D;}
</style><g><path class="st0" d="M0,121.9c0,67,54.8,121.9,121.9,121.9c67,0,121.9-54.8,121.9-121.9C243.7,54.8,188.9,0,121.9,0    C54.8,0,0,54.8,0,121.9z"/><g><g><g><g><rect class="st1" height="2.4" width="39.2" x="89.4" y="115.6"/></g><g><rect class="st1" height="2.4" width="20.2" x="133.6" y="115.6"/></g><g><path class="st2" d="M217.6,50H107.9H84.1c-2.8,0-5,2.3-5,5v80.7c0,2.8,2.3,5,5,5h133.4c2.8,0,5-2.3,5-5V55.1        C222.6,52.3,220.4,50,217.6,50z"/></g><g><rect class="st3" height="4.5" width="26.5" x="89.8" y="126.1"/></g><g><rect class="st4" height="6.2" width="26.5" x="89.8" y="109.6"/></g><g><rect class="st4" height="6.2" width="26.5" x="121.3" y="109.6"/></g><g><rect class="st4" height="6.2" width="26.5" x="89.8" y="68.1"/></g><g><rect class="st4" height="6.2" width="26.5" x="152.8" y="109.6"/></g><g><rect class="st5" height="6.2" width="26.5" x="184.2" y="109.6"/></g><g><rect class="st3" height="4.5" width="17.4" x="119.9" y="126.1"/></g><g><rect class="st6" height="16.8" width="4.9" x="100.3" y="83.2"/></g><g><path class="st6" d="M106,100h2.4c1.5,0,2.7-1.2,2.7-2.7v-1.9H106V100z"/></g><g><rect class="st6" height="6" width="5.1" x="106" y="88.7"/></g><g><path class="st6" d="M111.1,87.8v-1.9c0-1.5-1.2-2.7-2.7-2.7H106v4.6H111.1z"/></g><g><defs><path d="M184.2,115.8v-6.2h26.5v6.2H184.2L184.2,115.8z M217.6,50H107.9h-1.5l18,18h23.3v6.2h-17.1l35.3,35.3         h13.3v6.2h-7.1l25,25h20.4c2.8,0,5-2.3,5-5V55.1C222.6,52.3,220.4,50,217.6,50L217.6,50z" id="SVGID_1_"/></defs><clipPath id="SVGID_2_"><use style="overflow:visible;" xlink:href="#SVGID_1_"/></clipPath><g class="st7"><rect class="st2" height="90.8" width="116.2" x="106.4" y="50"/></g></g><g><polygon class="st4" points="124.4,68.1 121.3,68.1 121.3,74.3 130.6,74.3 147.7,74.3 147.7,68.1       "/></g><g><polygon class="st8" points="179.2,109.6 166,109.6 172.2,115.8 179.2,115.8       "/></g><g><rect class="st8" height="6.2" width="26.5" x="184.2" y="109.6"/></g><g><rect class="st6" height="6" width="5.2" x="94.3" y="88.7"/></g><g><path class="st6" d="M94.3,95.5v1.9c0,1.5,1.2,2.7,2.7,2.7h2.5v-4.5H94.3z"/></g><g><path class="st6" d="M99.5,83.2H97c-1.5,0-2.7,1.2-2.7,2.7v1.9h5.2V83.2z"/></g><g><g><path class="st5" d="M212.5,65.8l-6.1-6.1c-1.5-1.5-3.5-2.4-5.7-2.4c-2.2,0-4.2,0.8-5.7,2.4l-0.6,0.6l-0.6-0.6         c-1.5-1.5-3.5-2.4-5.7-2.4c-2.1,0-4.2,0.8-5.7,2.4l-6.1,6.1c-1.5,1.5-2.4,3.5-2.4,5.7c0,2.2,0.8,4.2,2.3,5.7l6.1,6.2         c1.5,1.5,3.5,2.4,5.7,2.4c2.1,0,4.2-0.8,5.7-2.4l0.6-0.6l0.6,0.6c1.5,1.5,3.5,2.4,5.7,2.4c2.1,0,4.2-0.8,5.7-2.4l6.2-6.1         c1.5-1.5,2.4-3.5,2.4-5.7C214.9,69.3,214,67.3,212.5,65.8z"/></g><g><g><path class="st5" d="M189.9,66.8l4.5-4.5l-1.7-1.7c-2.6-2.6-6.7-2.6-9.3,0l-6.1,6.1c-2.6,2.6-2.6,6.7,0,9.3l6.1,6.1          c2.6,2.6,6.7,2.6,9.3,0l1.7-1.7l-4.5-4.5C187.4,73.5,187.4,69.4,189.9,66.8z"/></g><g><path class="st9" d="M211.5,66.8l-6.1-6.1c-2.6-2.6-6.7-2.6-9.3,0l-1.7,1.7l4.5,4.5c2.6,2.6,2.5,6.7,0,9.3l-4.5,4.5l1.7,1.7          c2.5,2.6,6.7,2.6,9.3,0l6.1-6.1C214,73.6,214,69.4,211.5,66.8z"/></g><g><path class="st10" d="M198.9,66.8l-4.5-4.5l-4.5,4.5c-2.6,2.6-2.6,6.7,0,9.3l4.5,4.5l4.5-4.5          C201.4,73.5,201.4,69.4,198.9,66.8z"/></g></g></g></g></g><g><g><g><g><g><path class="st11" d="M149.7,199.8l0.3-57.2v0l0,0l-12-11.9l0,0.1l-116,0.2l0.1,69.2L149.7,199.8L149.7,199.8z"/></g><g><g><path class="st12" d="M76.7,149c0.1-0.1,0.3-0.1,0.4-0.2C77,148.8,76.8,148.9,76.7,149z"/></g><g><path class="st12" d="M79.2,147.8c0.2-0.1,0.4-0.1,0.5-0.2C79.6,147.7,79.4,147.8,79.2,147.8z"/></g><g><path class="st12" d="M104.7,168.7c0,0.2-0.1,0.4-0.1,0.5C104.7,169.1,104.7,168.9,104.7,168.7z"/></g><g><path class="st12" d="M82.3,147c0.2,0,0.4-0.1,0.6-0.1C82.7,146.9,82.5,147,82.3,147z"/></g><g><path class="st12" d="M101.1,177.4L101.1,177.4c0.1-0.1,0.1-0.1,0.2-0.2C101.2,177.2,101.2,177.3,101.1,177.4z"/></g><g><path class="st12" d="M74.5,150.3c-0.1,0.1-0.2,0.1-0.3,0.2l0,0C74.3,150.4,74.4,150.4,74.5,150.3z"/></g><g><polygon class="st12" points="104,171.9 104,171.9 104,171.9          "/></g><g><g><path class="st12" d="M124.5,157.7c-4.5,0-8.2,3.6-8.2,8.1c0,4.5,3.6,8.1,8.1,8.1c4.5,0,8.2-3.6,8.2-8.1            C132.7,161.3,129,157.6,124.5,157.7z"/></g><g><path class="st12" d="M47.3,157.8c-4.5,0-8.2,3.6-8.2,8.1c0,4.5,3.6,8.1,8.1,8.1c4.5,0,8.1-3.6,8.2-8.1            C55.4,161.4,51.8,157.8,47.3,157.8z"/></g></g></g></g><g><path class="st12" d="M144.8,140.9l-5,0l0-5.5l-7.4,0L26,135.5l-0.1,60.2l101.5-0.1l17.3,0l0.1-49.8L144.8,140.9z M142,186.3         c-3.3,0-6.1,2.7-6.1,6.1c0,0,0,0.1,0,0.1l-11.7,0l-89.4,0.1c0,0,0-0.1,0-0.1c0-3.3-2.7-6-6.1-6c0,0-0.1,0-0.1,0l0.1-41.5         c0,0,0.1,0,0.1,0c3.4,0,6.1-2.7,6.1-6.1c0,0,0-0.1,0-0.1l15.8,0l85.3-0.1c0,0,0,0.1,0,0.1c0,3.3,2.7,6,6,6L142,186.3z"/></g><path class="st12" d="M113.9,161.4v-2.5h-14c-2.3-7-7.6-12-13.8-12c-6.2,0-11.5,4.9-13.8,12h-14v2.5h13.3        c-0.2,1-0.4,2.1-0.5,3.2H58.4v2.5h12.7c0,1.1,0.1,2.2,0.2,3.2h-13v2.5h13.5c2,8,7.6,13.7,14.3,13.7c6.7,0,12.3-5.8,14.3-13.7        l13.5,0v-2.5h-13c0.1-1,0.2-2.1,0.2-3.2h12.8v-2.5h-12.8c-0.1-1.1-0.3-2.2-0.5-3.2H113.9z M90.2,175.9c-0.8,0.5-1.9,0.8-3.3,1        l0,3l-2.3,0l0-3c-2.3-0.3-3.9-1.2-4.7-2.7c-0.5-0.9-0.8-2.1-0.7-3.7l2.4,0c0.1,1.2,0.2,2.1,0.6,2.7c0.5,1,1.6,1.6,3.1,1.7        l1.3,0.1c1.5-0.1,2.6-0.6,3.2-1.7c0.3-0.5,0.5-1.2,0.5-1.9c0-1.1-0.4-2-1.2-2.6c-0.5-0.3-1.3-0.7-2.4-1l-1.3-0.3        c-2-0.4-3.4-1-4.3-1.9c-0.9-0.9-1.4-2.1-1.4-3.6c0-1.4,0.5-2.6,1.5-3.7c0-0.1,0.1-0.1,0.2-0.2c0.9-0.9,2-1.4,3.5-1.5l0-3.2        l2.4,0l0,3.2c1.6,0.2,2.8,0.7,3.6,1.6c0.9,0.9,1.4,2.2,1.5,3.7l-2.4,0c-0.1-0.7-0.2-1.3-0.5-1.8c-0.6-0.9-1.5-1.4-2.7-1.4        l-1.3,0c-1.2,0-2,0.4-2.5,1l0,0c-0.5,0.7-0.8,1.4-0.8,2.1c0,0.9,0.3,1.6,0.9,2.1c0.6,0.5,1.4,0.9,2.4,1.1l1.3,0.3        c1.1,0.3,2,0.6,2.7,0.9c0.7,0.3,1.2,0.5,1.5,0.8c0.8,0.6,1.4,1.4,1.6,2.4c0.1,0.4,0.2,0.9,0.2,1.4        C92.6,173.2,91.8,174.9,90.2,175.9z"/></g><g><polygon class="st13" points="138,130.6 138,130.6 138,134.3 138,142.5 145.5,142.5 149.9,142.5 150,142.5 150,142.5               "/></g></g><g><g><g><g><path class="st11" d="M149.7,193.1l0.3-57.2v0l0,0l-12-11.9l0,0.1l-116,0.2l0.1,69.2L149.7,193.1L149.7,193.1z"/></g><g><g><path class="st12" d="M76.7,142.2c0.1-0.1,0.3-0.1,0.4-0.2C77,142.1,76.8,142.1,76.7,142.2z"/></g><g><path class="st12" d="M79.2,141.1c0.2-0.1,0.4-0.1,0.5-0.2C79.6,141,79.4,141,79.2,141.1z"/></g><g><path class="st12" d="M104.7,162c0,0.2-0.1,0.4-0.1,0.5C104.7,162.4,104.7,162.2,104.7,162z"/></g><g><path class="st12" d="M82.3,140.3c0.2,0,0.4-0.1,0.6-0.1C82.7,140.2,82.5,140.2,82.3,140.3z"/></g><g><path class="st12" d="M101.1,170.6L101.1,170.6c0.1-0.1,0.1-0.1,0.2-0.2C101.2,170.5,101.2,170.6,101.1,170.6z"/></g><g><path class="st12" d="M74.5,143.6c-0.1,0.1-0.2,0.1-0.3,0.2l0,0C74.3,143.7,74.4,143.6,74.5,143.6z"/></g><g><polygon class="st12" points="104,165.2 104,165.2 104,165.2          "/></g><g><g><path class="st12" d="M124.5,150.9c-4.5,0-8.2,3.6-8.2,8.1c0,4.5,3.6,8.1,8.1,8.1c4.5,0,8.2-3.6,8.2-8.1            C132.7,154.6,129,150.9,124.5,150.9z"/></g><g><path class="st12" d="M47.3,151.1c-4.5,0-8.2,3.7-8.2,8.1c0,4.5,3.6,8.1,8.1,8.1c4.5,0,8.1-3.6,8.2-8.1            C55.4,154.7,51.8,151.1,47.3,151.1z"/></g></g></g></g><g><path class="st12" d="M144.8,134.2l-5,0l0-5.5l-7.4,0L26,128.8L25.9,189l101.5-0.1l17.3,0l0.1-49.8L144.8,134.2z M142,179.5         c-3.3,0-6.1,2.7-6.1,6.1c0,0,0,0.1,0,0.1l-11.7,0l-89.4,0.1c0,0,0-0.1,0-0.1c0-3.3-2.7-6-6.1-6c0,0-0.1,0-0.1,0l0.1-41.5         c0,0,0.1,0,0.1,0c3.4,0,6.1-2.7,6.1-6.1c0,0,0-0.1,0-0.1l15.8,0l85.3-0.1c0,0,0,0.1,0,0.1c0,3.3,2.7,6,6,6L142,179.5z"/></g><path class="st12" d="M113.9,154.7v-2.5h-14c-2.3-7-7.6-12-13.8-12c-6.2,0-11.5,4.9-13.8,12h-14v2.5l13.3,0        c-0.2,1-0.4,2.1-0.5,3.2l-12.8,0v2.5h12.7c0,1.1,0.1,2.2,0.2,3.2l-13,0v2.5h13.5c2,8,7.6,13.7,14.3,13.7        c6.7,0,12.3-5.8,14.3-13.7h13.5v-2.5h-13c0.1-1,0.2-2.1,0.2-3.2h12.8v-2.5h-12.8c-0.1-1.1-0.3-2.2-0.5-3.2H113.9z M90.2,169.2        c-0.8,0.5-1.9,0.8-3.3,1l0,3l-2.3,0l0-3c-2.3-0.3-3.9-1.2-4.7-2.7c-0.5-0.9-0.8-2.1-0.7-3.7l2.4,0c0.1,1.2,0.2,2.1,0.6,2.7        c0.5,1,1.6,1.6,3.1,1.7l1.3,0.1c1.5-0.1,2.6-0.6,3.2-1.7c0.3-0.5,0.5-1.2,0.5-1.9c0-1.1-0.4-2-1.2-2.6c-0.5-0.3-1.3-0.7-2.4-1        l-1.3-0.3c-2-0.4-3.4-1-4.3-1.9c-0.9-0.9-1.4-2.1-1.4-3.6c0-1.4,0.5-2.6,1.5-3.7c0-0.1,0.1-0.1,0.2-0.2c0.9-0.9,2-1.4,3.5-1.5        l0-3.2l2.4,0l0,3.2c1.6,0.2,2.8,0.7,3.6,1.6c0.9,0.9,1.4,2.2,1.5,3.7l-2.4,0c-0.1-0.7-0.2-1.3-0.5-1.8        c-0.6-0.9-1.5-1.4-2.7-1.4l-1.3,0c-1.2,0-2,0.4-2.5,1l0,0c-0.5,0.7-0.8,1.4-0.8,2.1c0,0.9,0.3,1.6,0.9,2.1        c0.6,0.5,1.4,0.9,2.4,1.1l1.3,0.3c1.1,0.3,2,0.6,2.7,0.9c0.7,0.3,1.2,0.5,1.5,0.8c0.8,0.6,1.4,1.4,1.6,2.4        c0.1,0.4,0.2,0.9,0.2,1.4C92.6,166.5,91.8,168.2,90.2,169.2z"/></g><g><polygon class="st13" points="138,123.8 138,123.9 138,127.5 138,135.8 145.5,135.8 149.9,135.8 150,135.8 150,135.8               "/></g></g><g><g><g><g><path class="st11" d="M149.7,186.4l0.3-57.2v0l0,0l-12-11.9l0,0.1l-116,0.2l0.1,69.2L149.7,186.4L149.7,186.4z"/></g><g><g><path class="st12" d="M76.7,135.5c0.1-0.1,0.3-0.1,0.4-0.2C77,135.4,76.8,135.4,76.7,135.5z"/></g><g><path class="st12" d="M79.2,134.4c0.2-0.1,0.4-0.1,0.5-0.2C79.6,134.2,79.4,134.3,79.2,134.4z"/></g><g><path class="st12" d="M104.7,155.3c0,0.2-0.1,0.4-0.1,0.5C104.7,155.6,104.7,155.5,104.7,155.3z"/></g><g><path class="st12" d="M82.3,133.6c0.2,0,0.4-0.1,0.6-0.1C82.7,133.5,82.5,133.5,82.3,133.6z"/></g><g><path class="st12" d="M101.1,163.9L101.1,163.9c0.1-0.1,0.1-0.1,0.2-0.2C101.2,163.8,101.2,163.8,101.1,163.9z"/></g><g><path class="st12" d="M74.5,136.9c-0.1,0.1-0.2,0.1-0.3,0.2l0,0C74.3,137,74.4,136.9,74.5,136.9z"/></g><g><polygon class="st12" points="104,158.5 104,158.5 104,158.5          "/></g><g><g><path class="st12" d="M124.5,144.2c-4.5,0-8.2,3.6-8.2,8.1c0,4.5,3.6,8.1,8.1,8.1c4.5,0,8.2-3.6,8.2-8.1            C132.7,147.8,129,144.2,124.5,144.2z"/></g><g><path class="st12" d="M47.3,144.3c-4.5,0-8.2,3.6-8.2,8.1c0,4.5,3.6,8.1,8.1,8.1c4.5,0,8.1-3.6,8.2-8.1            C55.4,148,51.8,144.3,47.3,144.3z"/></g></g></g></g><g><path class="st12" d="M144.8,127.4l-5,0l0-5.5l-7.4,0L26,122l-0.1,60.2l101.5-0.1l17.3,0l0.1-49.8L144.8,127.4z M142,172.8         c-3.3,0-6.1,2.7-6.1,6.1c0,0,0,0.1,0,0.1l-11.7,0l-89.4,0.1c0,0,0-0.1,0-0.1c0-3.3-2.7-6-6.1-6c0,0-0.1,0-0.1,0l0.1-41.5         c0,0,0.1,0,0.1,0c3.4,0,6.1-2.7,6.1-6.1c0,0,0-0.1,0-0.1l15.8,0l85.3-0.1c0,0,0,0.1,0,0.1c0,3.3,2.7,6,6,6L142,172.8z"/></g><path class="st12" d="M113.9,147.9v-2.5h-14c-2.3-7-7.6-12-13.8-12c-6.2,0-11.5,4.9-13.8,12l-14,0v2.5l13.3,0        c-0.2,1-0.4,2.1-0.5,3.2l-12.8,0v2.5h12.7c0,1.1,0.1,2.2,0.2,3.2h-13v2.5h13.5c2,8,7.6,13.7,14.3,13.7        c6.7,0,12.3-5.8,14.3-13.7h13.5v-2.5h-13c0.1-1,0.2-2.1,0.2-3.2h12.8v-2.5h-12.8c-0.1-1.1-0.3-2.2-0.5-3.2H113.9z M90.2,162.4        c-0.8,0.5-1.9,0.8-3.3,1l0,3l-2.3,0l0-3c-2.3-0.3-3.9-1.2-4.7-2.7c-0.5-0.9-0.8-2.1-0.7-3.7l2.4,0c0.1,1.2,0.2,2.1,0.6,2.7        c0.5,1,1.6,1.6,3.1,1.7l1.3,0.1c1.5-0.1,2.6-0.6,3.2-1.7c0.3-0.5,0.5-1.2,0.5-1.9c0-1.1-0.4-2-1.2-2.6c-0.5-0.3-1.3-0.7-2.4-1        l-1.3-0.3c-2-0.4-3.4-1-4.3-1.9c-0.9-0.9-1.4-2.1-1.4-3.6c0-1.4,0.5-2.6,1.5-3.7c0-0.1,0.1-0.1,0.2-0.2c0.9-0.9,2-1.4,3.5-1.5        l0-3.2l2.4,0l0,3.2c1.6,0.2,2.8,0.7,3.6,1.6c0.9,0.9,1.4,2.2,1.5,3.7l-2.4,0c-0.1-0.7-0.2-1.3-0.5-1.8        c-0.6-0.9-1.5-1.4-2.7-1.4l-1.3,0c-1.2,0-2,0.4-2.5,1l0,0c-0.5,0.7-0.8,1.4-0.8,2.1c0,0.9,0.3,1.6,0.9,2.1        c0.6,0.5,1.4,0.9,2.4,1.1l1.3,0.3c1.1,0.3,2,0.6,2.7,0.9c0.7,0.3,1.2,0.5,1.5,0.8c0.8,0.6,1.4,1.4,1.6,2.4        c0.1,0.4,0.2,0.9,0.2,1.4C92.6,159.8,91.8,161.4,90.2,162.4z"/></g><g><polygon class="st13" points="138,117.1 138,117.2 138,120.8 138,129.1 145.5,129.1 149.9,129.1 150,129.1 150,129.1               "/></g></g><g><g><g><g><path class="st11" d="M149.7,179.6l0.3-57.2v0l0,0l-12-11.9l0,0.1l-116,0.2l0.1,69.2L149.7,179.6L149.7,179.6z"/></g><g><g><path class="st12" d="M76.7,128.8c0.1-0.1,0.3-0.1,0.4-0.2C77,128.6,76.8,128.7,76.7,128.8z"/></g><g><path class="st12" d="M79.2,127.7c0.2-0.1,0.4-0.1,0.5-0.2C79.6,127.5,79.4,127.6,79.2,127.7z"/></g><g><path class="st12" d="M104.7,148.6c0,0.2-0.1,0.4-0.1,0.5C104.7,148.9,104.7,148.7,104.7,148.6z"/></g><g><path class="st12" d="M82.3,126.8c0.2,0,0.4-0.1,0.6-0.1C82.7,126.8,82.5,126.8,82.3,126.8z"/></g><g><path class="st12" d="M101.1,157.2L101.1,157.2c0.1-0.1,0.1-0.1,0.2-0.2C101.2,157,101.2,157.1,101.1,157.2z"/></g><g><path class="st12" d="M74.5,130.1c-0.1,0.1-0.2,0.1-0.3,0.2l0,0C74.3,130.3,74.4,130.2,74.5,130.1z"/></g><g><polygon class="st12" points="104,151.7 104,151.7 104,151.7          "/></g><g><g><path class="st12" d="M124.5,137.5c-4.5,0-8.2,3.6-8.2,8.1c0,4.5,3.6,8.1,8.1,8.1c4.5,0,8.2-3.6,8.2-8.1            C132.7,141.1,129,137.5,124.5,137.5z"/></g><g><path class="st12" d="M47.3,137.6c-4.5,0-8.2,3.6-8.2,8.1c0,4.5,3.6,8.1,8.1,8.1c4.5,0,8.1-3.6,8.2-8.1            C55.4,141.2,51.8,137.6,47.3,137.6z"/></g></g></g></g><g><path class="st12" d="M144.8,120.7l-5,0l0-5.5l-7.4,0L26,115.3l-0.1,60.2l101.5-0.1l17.3,0l0.1-49.8L144.8,120.7z M142,166.1         c-3.3,0-6.1,2.7-6.1,6.1c0,0,0,0.1,0,0.1l-11.7,0l-89.4,0.1c0,0,0-0.1,0-0.1c0-3.3-2.7-6-6.1-6c0,0-0.1,0-0.1,0l0.1-41.5         c0,0,0.1,0,0.1,0c3.4,0,6.1-2.7,6.1-6.1c0,0,0-0.1,0-0.1l15.8,0l85.3-0.1c0,0,0,0.1,0,0.1c0,3.3,2.7,6,6,6L142,166.1z"/></g><path class="st12" d="M113.9,141.2v-2.5h-14c-2.3-7-7.6-12-13.8-12c-6.2,0-11.5,4.9-13.8,12l-14,0v2.5h13.3        c-0.2,1-0.4,2.1-0.5,3.2l-12.8,0v2.5h12.7c0,1.1,0.1,2.2,0.2,3.2h-13v2.5h13.5c2,8,7.6,13.7,14.3,13.7        c6.7,0,12.3-5.8,14.3-13.7h13.5v-2.5h-13c0.1-1,0.2-2.1,0.2-3.2h12.8v-2.5h-12.8c-0.1-1.1-0.3-2.2-0.5-3.2H113.9z M90.2,155.7        c-0.8,0.5-1.9,0.8-3.3,1l0,3l-2.3,0l0-3c-2.3-0.3-3.9-1.2-4.7-2.7c-0.5-0.9-0.8-2.1-0.7-3.7l2.4,0c0.1,1.2,0.2,2.1,0.6,2.7        c0.5,1,1.6,1.6,3.1,1.7l1.3,0.1c1.5-0.1,2.6-0.6,3.2-1.7c0.3-0.5,0.5-1.2,0.5-1.9c0-1.1-0.4-2-1.2-2.6c-0.5-0.3-1.3-0.7-2.4-1        l-1.3-0.3c-2-0.4-3.4-1-4.3-1.9c-0.9-0.9-1.4-2.1-1.4-3.6c0-1.4,0.5-2.6,1.5-3.7c0-0.1,0.1-0.1,0.2-0.2c0.9-0.9,2-1.4,3.5-1.5        l0-3.2l2.4,0l0,3.2c1.6,0.2,2.8,0.7,3.6,1.6c0.9,0.9,1.4,2.2,1.5,3.7l-2.4,0c-0.1-0.7-0.2-1.3-0.5-1.8        c-0.6-0.9-1.5-1.4-2.7-1.4l-1.3,0c-1.2,0-2,0.4-2.5,1l0,0c-0.5,0.7-0.8,1.4-0.8,2.1c0,0.9,0.3,1.6,0.9,2.1        c0.6,0.5,1.4,0.9,2.4,1.1l1.3,0.3c1.1,0.3,2,0.6,2.7,0.9c0.7,0.3,1.2,0.5,1.5,0.8c0.8,0.6,1.4,1.4,1.6,2.4        c0.1,0.4,0.2,0.9,0.2,1.4C92.6,153,91.8,154.7,90.2,155.7z"/></g><g><polygon class="st13" points="138,110.4 138,110.4 138,114.1 138,122.4 145.5,122.3 149.9,122.3 150,122.3 150,122.3               "/></g></g><g><g><g><g><path class="st11" d="M149.7,172.9l0.3-57.2v0l0,0l-12-11.9l0,0.1l-116,0.2l0.1,69.2L149.7,172.9L149.7,172.9z"/></g><g><g><path class="st12" d="M76.7,122c0.1-0.1,0.3-0.1,0.4-0.2C77,121.9,76.8,122,76.7,122z"/></g><g><path class="st12" d="M79.2,120.9c0.2-0.1,0.4-0.1,0.5-0.2C79.6,120.8,79.4,120.9,79.2,120.9z"/></g><g><path class="st12" d="M104.7,141.8c0,0.2-0.1,0.4-0.1,0.5C104.7,142.2,104.7,142,104.7,141.8z"/></g><g><path class="st12" d="M82.3,120.1c0.2,0,0.4-0.1,0.6-0.1C82.7,120,82.5,120.1,82.3,120.1z"/></g><g><path class="st12" d="M101.1,150.4L101.1,150.4c0.1-0.1,0.1-0.1,0.2-0.2C101.2,150.3,101.2,150.4,101.1,150.4z"/></g><g><path class="st12" d="M74.5,123.4c-0.1,0.1-0.2,0.1-0.3,0.2l0,0C74.3,123.5,74.4,123.5,74.5,123.4z"/></g><g><polygon class="st12" points="104,145 104,145 104,145          "/></g><g><g><path class="st12" d="M124.5,130.7c-4.5,0-8.2,3.6-8.2,8.1c0,4.5,3.6,8.1,8.1,8.1c4.5,0,8.2-3.6,8.2-8.1            C132.7,134.4,129,130.7,124.5,130.7z"/></g><g><path class="st12" d="M47.3,130.9c-4.5,0-8.2,3.6-8.2,8.1c0,4.5,3.6,8.1,8.1,8.1c4.5,0,8.1-3.6,8.2-8.1            C55.4,134.5,51.8,130.9,47.3,130.9z"/></g></g></g></g><g><path class="st12" d="M144.8,114l-5,0l0-5.5l-7.4,0L26,108.6l-0.1,60.2l101.5-0.1l17.3,0l0.1-49.8L144.8,114z M142,159.4         c-3.3,0-6.1,2.7-6.1,6.1c0,0,0,0.1,0,0.1l-11.7,0l-89.4,0.1c0,0,0-0.1,0-0.1c0-3.3-2.7-6-6.1-6c0,0-0.1,0-0.1,0l0.1-41.5         c0,0,0.1,0,0.1,0c3.4,0,6.1-2.7,6.1-6.1c0,0,0-0.1,0-0.1l15.8,0l85.3-0.1c0,0,0,0.1,0,0.1c0,3.3,2.7,6,6,6L142,159.4z"/></g><path class="st12" d="M113.9,134.5V132h-14c-2.3-7-7.6-12-13.8-12c-6.2,0-11.5,4.9-13.8,12h-14v2.5h13.3        c-0.2,1-0.4,2.1-0.5,3.2l-12.8,0v2.5l12.7,0c0,1.1,0.1,2.2,0.2,3.2h-13v2.5l13.5,0c2,8,7.6,13.7,14.3,13.7        c6.7,0,12.3-5.8,14.3-13.7h13.5v-2.5h-13c0.1-1,0.2-2.1,0.2-3.2h12.8v-2.5h-12.8c-0.1-1.1-0.3-2.2-0.5-3.2H113.9z M90.2,149        c-0.8,0.5-1.9,0.8-3.3,1l0,3l-2.3,0l0-3c-2.3-0.3-3.9-1.2-4.7-2.7c-0.5-0.9-0.8-2.1-0.7-3.7l2.4,0c0.1,1.2,0.2,2.1,0.6,2.7        c0.5,1,1.6,1.6,3.1,1.7l1.3,0.1c1.5-0.1,2.6-0.6,3.2-1.7c0.3-0.5,0.5-1.2,0.5-1.9c0-1.1-0.4-2-1.2-2.6c-0.5-0.3-1.3-0.7-2.4-1        l-1.3-0.3c-2-0.4-3.4-1-4.3-1.9c-0.9-0.9-1.4-2.1-1.4-3.6c0-1.4,0.5-2.6,1.5-3.7c0-0.1,0.1-0.1,0.2-0.2c0.9-0.9,2-1.4,3.5-1.5        l0-3.2l2.4,0l0,3.2c1.6,0.2,2.8,0.7,3.6,1.6c0.9,0.9,1.4,2.2,1.5,3.7l-2.4,0c-0.1-0.7-0.2-1.3-0.5-1.8        c-0.6-0.9-1.5-1.4-2.7-1.4l-1.3,0c-1.2,0-2,0.4-2.5,1l0,0c-0.5,0.7-0.8,1.4-0.8,2.1c0,0.9,0.3,1.6,0.9,2.1        c0.6,0.5,1.4,0.9,2.4,1.1l1.3,0.3c1.1,0.3,2,0.6,2.7,0.9c0.7,0.3,1.2,0.5,1.5,0.8c0.8,0.6,1.4,1.4,1.6,2.4        c0.1,0.4,0.2,0.9,0.2,1.4C92.6,146.3,91.8,148,90.2,149z"/></g><g><polygon class="st13" points="138,103.7 138,103.7 138,107.4 138,115.6 145.5,115.6 149.9,115.6 150,115.6 150,115.6               "/></g></g></g><g><g><g><g><g><rect class="st14" height="6.5" width="37.1" x="169.9" y="129.1"/></g><g><polygon class="st15" points="206,161.1 206,154.6 203.4,154.6 203.4,148.2 203.2,148.2 203.2,148.2 205.5,148.2           205.5,141.7 203.4,141.7 203.4,135.3 166.2,135.3 166.2,141.7 168.6,141.7 168.6,141.7 168.3,141.7 168.3,148.2           166.2,148.2 166.2,154.6 168.9,154.6 168.9,161.1 167.2,161.1 167.2,167.6 168.2,167.6 168.2,174 167.4,174 167.4,179.2           167.3,179.2 167.3,180.5 166.2,180.5 166.2,187 168.1,187 168.1,193.4 168.4,193.4 168.4,193.4 163.7,193.4 163.7,199.9           200.9,199.9 200.9,195.7 200.9,193.4 205.2,193.4 205.2,187 203.4,187 203.4,187 203.4,185.7 203.4,185.7 203.4,180.5           204.6,180.5 204.6,174 205.3,174 205.3,167.6 204.3,167.6 204.3,161.1         "/></g><g><rect class="st16" height="6.5" width="37.1" x="163.7" y="193.4"/></g><g><rect class="st14" height="6.5" width="37.1" x="168.1" y="187"/></g><g><rect class="st17" height="6.5" width="37.1" x="166.2" y="180.5"/></g><g><rect class="st14" height="6.5" width="37.1" x="167.4" y="174"/></g><g><rect class="st15" height="6.5" width="37.1" x="168.2" y="167.6"/></g><g><rect class="st14" height="6.5" width="37.1" x="167.2" y="161.1"/></g><g><rect class="st17" height="6.5" width="37.1" x="168.9" y="154.6"/></g><g><rect class="st16" height="6.5" width="37.1" x="166.2" y="148.2"/></g><g><rect class="st14" height="6.5" width="37.1" x="168.3" y="141.7"/></g><g><rect class="st15" height="6.5" width="37.1" x="166.2" y="135.3"/></g></g><g><g><polygon class="st15" points="160,180.3 160,173.8 156.2,173.8 156.2,173.8 156.2,167.4 159.1,167.4 159.1,160.9           156.2,160.9 156.2,154.4 119.1,154.4 119.1,160.9 121.9,160.9 121.9,167.4 119.1,167.4 119.1,173.8 122.9,173.8 122.9,176           122.9,180.3 122.9,180.3 121.2,180.3 121.2,186.7 121.7,186.7 121.7,193.2 121.7,193.2 120.3,193.2 120.3,199.7           157.4,199.7 157.4,193.4 158.9,193.2 158.9,186.7 158.3,186.7 158.3,180.3         "/></g><g><rect class="st15" height="6.5" width="37.1" x="120.3" y="193.2"/></g><g><rect class="st16" height="6.5" width="37.1" x="121.7" y="186.7"/></g><g><rect class="st14" height="6.5" width="37.1" x="121.2" y="180.3"/></g><g><rect class="st17" height="6.5" width="37.1" x="122.9" y="173.8"/></g><g><rect class="st16" height="6.5" width="37.1" x="119.1" y="167.4"/></g><g><rect class="st17" height="6.5" width="37.1" x="121.9" y="160.9"/></g></g><g><g><rect class="st17" height="6.5" width="37.1" x="116.2" y="148"/></g></g><g class="st18"><polygon class="st19" points="131,163.3 167.7,200 118.2,200        "/></g><g><g><g><g><path class="st15" d="M127.3,197.1c-10.3,4.6-22.2,0.4-27-9.6c-2.4-4.9-2.7-10.5-0.9-15.7c1.8-5.2,5.6-9.4,10.6-11.8            c0.2-0.1,0.4-0.2,0.6-0.3c10.3-4.6,22.2-0.4,27,9.6c2.4,4.9,2.7,10.4,0.9,15.6c-1.8,5.3-5.6,9.5-10.6,12            C127.7,196.9,127.5,197,127.3,197.1z"/></g><g><path class="st14" d="M110.9,160.5c9.8-4.4,21.2-0.3,25.9,9.2c4.7,9.7,0.6,21.5-9.3,26.3c-0.2,0.1-0.4,0.2-0.6,0.3            c-9.8,4.4-21.2,0.3-25.9-9.2c-4.7-9.7-0.6-21.5,9.3-26.3C110.5,160.7,110.7,160.6,110.9,160.5L110.9,160.5z M110.2,158.9            L110.2,158.9c-0.2,0.1-0.4,0.2-0.6,0.3c-5.2,2.5-9.1,6.9-11,12.3c-1.9,5.4-1.6,11.2,0.9,16.4            c5.1,10.4,17.5,14.9,28.2,10.1c0.2-0.1,0.4-0.2,0.6-0.3c5.3-2.6,9.2-7,11.1-12.5c1.9-5.4,1.5-11.1-1-16.2            C133.3,158.5,120.9,154.1,110.2,158.9L110.2,158.9z"/></g></g><g><path class="st14" d="M125.5,178.2c-0.6-0.8-1.5-1.3-2.5-1.5c-0.4-0.1-0.9-0.1-1.6-0.1c-0.7,0-1.6,0.1-2.6,0.3l-1.1,0.3           c-0.8,0.2-1.5,0.2-2.1,0c-0.5-0.1-0.9-0.5-1.2-1.1c-0.2-0.5-0.3-1.1-0.1-1.8c0.1-0.6,0.6-1.1,1.4-1.5l1-0.4           c0.9-0.4,1.6-0.3,2.3,0.1c0.4,0.2,0.7,0.6,1,1.1l0.2,0.3l2.7-1.2l-0.2-0.4c-0.6-1.3-1.6-2.2-2.8-2.6c-1-0.4-2.1-0.4-3.4,0           l-1.2-2.6l-2.7,1.2l1.2,2.6c-1,0.7-1.7,1.5-2.1,2.5c0,0.1,0,0.1-0.1,0.2c-0.5,1.4-0.4,2.7,0.1,3.9c0.6,1.3,1.5,2.2,2.7,2.6           c1.1,0.4,2.6,0.4,4.4-0.1l1.2-0.2c1.2-0.2,1.8-0.2,2.1-0.1c0.7,0.1,1.3,0.6,1.6,1.4c0.2,0.5,0.3,1,0.3,1.5           c-0.1,0.9-0.6,1.6-1.7,2.2l-1.1,0.4c-1.1,0.4-2,0.4-2.7-0.2c-0.3-0.2-0.7-0.7-1.3-1.8l-0.2-0.4l-2.7,1.2l0.2,0.4           c0.6,1.3,1.3,2.3,2.1,2.9c1.3,1,2.9,1.2,4.8,0.6l1.1,2.5l2.7-1.2l-1.1-2.5c1-0.6,1.6-1.3,2.1-2c1-1.5,1-3.3,0.1-5.4           C126,178.9,125.8,178.6,125.5,178.2z"/></g></g><g><g><g><path class="st14" d="M110.3,165.2c0.6,0.7,0.5,1.7-0.2,2.3c-0.7,0.6-1.7,0.5-2.3-0.2c-0.6-0.7-0.5-1.7,0.2-2.3            C108.7,164.4,109.7,164.5,110.3,165.2z"/></g><g><path class="st14" d="M130,189.5c0.6,0.7,0.5,1.7-0.2,2.3c-0.7,0.6-1.7,0.5-2.3-0.2c-0.6-0.7-0.5-1.7,0.2-2.3            C128.4,188.7,129.5,188.8,130,189.5z"/></g></g><g><g><path class="st14" d="M114,163.4c0.4,0.8,0,1.8-0.8,2.1c-0.8,0.4-1.8,0-2.1-0.8c-0.4-0.8,0-1.8,0.8-2.1            C112.7,162.3,113.6,162.6,114,163.4z"/></g><g><path class="st14" d="M126.8,192c0.4,0.8,0,1.8-0.8,2.1c-0.8,0.4-1.8,0-2.1-0.8c-0.4-0.8,0-1.8,0.8-2.1            C125.5,190.8,126.4,191.2,126.8,192z"/></g></g><g><g><path class="st14" d="M107.2,167.9c0.7,0.5,0.9,1.5,0.4,2.3c-0.5,0.7-1.5,0.9-2.3,0.4c-0.7-0.5-0.9-1.5-0.4-2.3            C105.4,167.5,106.4,167.4,107.2,167.9z"/></g><g><circle class="st14" cx="131.6" cy="187.6" r="1.6"/></g></g><g><g><path class="st14" d="M104.9,171.3c0.8,0.3,1.2,1.3,0.9,2.1c-0.3,0.8-1.3,1.3-2.1,0.9c-0.8-0.3-1.3-1.3-0.9-2.1            C103.1,171.4,104,171,104.9,171.3z"/></g><g><path class="st14" d="M134.1,182.5c0.8,0.3,1.3,1.2,0.9,2.1c-0.3,0.8-1.2,1.3-2.1,0.9c-0.8-0.3-1.3-1.2-0.9-2.1            C132.3,182.6,133.3,182.1,134.1,182.5z"/></g></g><g><g><path class="st14" d="M103.5,175.2c0.9,0.1,1.5,0.9,1.4,1.8c-0.1,0.9-0.9,1.5-1.8,1.4c-0.9-0.1-1.5-0.9-1.4-1.8            C101.8,175.7,102.6,175.1,103.5,175.2z"/></g><g><path class="st14" d="M134.6,178.4c0.9,0.1,1.5,0.9,1.4,1.8c-0.1,0.9-0.9,1.5-1.8,1.4c-0.9-0.1-1.5-0.9-1.4-1.8            C132.9,178.9,133.8,178.3,134.6,178.4z"/></g></g><g><g><path class="st14" d="M103.2,179.3c0.9-0.1,1.7,0.5,1.9,1.3c0.1,0.9-0.5,1.7-1.3,1.8c-0.9,0.1-1.7-0.5-1.9-1.3            C101.7,180.2,102.3,179.4,103.2,179.3z"/></g><g><path class="st14" d="M134.1,174.3c0.9-0.1,1.7,0.5,1.8,1.3c0.1,0.9-0.5,1.7-1.3,1.8c-0.9,0.1-1.7-0.5-1.8-1.3            C132.6,175.3,133.2,174.5,134.1,174.3z"/></g></g><g><g><path class="st14" d="M104,183.3c0.8-0.4,1.8,0,2.1,0.8c0.4,0.8,0,1.8-0.8,2.1c-0.8,0.4-1.8,0-2.1-0.8            C102.8,184.6,103.1,183.7,104,183.3z"/></g><g><path class="st14" d="M132.5,170.5c0.8-0.4,1.8,0,2.1,0.8c0.4,0.8,0,1.8-0.8,2.1c-0.8,0.4-1.8,0-2.1-0.8            C131.3,171.8,131.7,170.9,132.5,170.5z"/></g></g><g><g><path class="st14" d="M105.7,187c0.7-0.6,1.7-0.5,2.3,0.2c0.6,0.7,0.5,1.7-0.2,2.3c-0.7,0.6-1.7,0.5-2.3-0.2            C104.9,188.6,105,187.6,105.7,187z"/></g><g><path class="st14" d="M130,167.3c0.7-0.6,1.7-0.5,2.3,0.2c0.6,0.7,0.5,1.7-0.2,2.3c-0.7,0.6-1.7,0.5-2.3-0.2            C129.2,168.8,129.3,167.8,130,167.3z"/></g></g><g><g><path class="st14" d="M108.4,190.1c0.5-0.7,1.5-0.9,2.3-0.4c0.7,0.5,0.9,1.5,0.4,2.3c-0.5,0.7-1.5,0.9-2.3,0.4            C108.1,191.9,107.9,190.8,108.4,190.1z"/></g><g><path class="st14" d="M126.8,164.8c0.5-0.7,1.5-0.9,2.3-0.4c0.7,0.5,0.9,1.5,0.4,2.3c-0.5,0.7-1.5,0.9-2.3,0.4            C126.4,166.5,126.2,165.5,126.8,164.8z"/></g></g><g><g><path class="st14" d="M111.8,192.4c0.3-0.8,1.3-1.3,2.1-0.9c0.8,0.3,1.2,1.3,0.9,2.1c-0.3,0.8-1.3,1.3-2.1,0.9            C111.9,194.2,111.5,193.3,111.8,192.4z"/></g><g><path class="st14" d="M123,163.2c0.3-0.8,1.2-1.3,2.1-0.9c0.8,0.3,1.3,1.3,0.9,2.1c-0.3,0.8-1.3,1.3-2.1,0.9            C123.1,165,122.7,164,123,163.2z"/></g></g><g><g><path class="st14" d="M115.7,193.8c0.1-0.9,0.9-1.5,1.8-1.4c0.9,0.1,1.5,0.9,1.4,1.8c-0.1,0.9-0.9,1.5-1.8,1.4            C116.2,195.5,115.6,194.7,115.7,193.8z"/></g><g><path class="st14" d="M118.9,162.7c0.1-0.9,0.9-1.5,1.8-1.4c0.9,0.1,1.5,0.9,1.4,1.8c-0.1,0.9-0.9,1.5-1.8,1.4            C119.5,164.3,118.8,163.5,118.9,162.7z"/></g></g><g><g><path class="st14" d="M119.8,194.1c-0.1-0.9,0.5-1.7,1.3-1.9c0.9-0.1,1.7,0.5,1.9,1.3c0.1,0.9-0.5,1.7-1.3,1.9            C120.8,195.6,119.9,195,119.8,194.1z"/></g><g><path class="st14" d="M114.8,163.2c-0.1-0.9,0.5-1.7,1.3-1.9c0.9-0.1,1.7,0.5,1.9,1.3c0.1,0.9-0.5,1.7-1.3,1.9            C115.8,164.7,115,164.1,114.8,163.2z"/></g></g></g></g></g></g></g></g></g></svg>