<?xml version="1.0" ?><svg style="enable-background:new 0 0 48 48;" version="1.1" viewBox="0 0 48 48" xml:space="preserve" xmlns="http://www.w3.org/2000/svg" xmlns:xlink="http://www.w3.org/1999/xlink"><g id="Icons"><g><g><polygon points="29.14005,17.18017 29.14005,26.51805 8.46995,26.51805 8.46995,28.90785      39.52998,28.90785 39.52998,26.28525 38.27377,26.28525 38.27377,22.98295 32.44201,17.15119    " style="fill:#EA3953;"/><rect height="11.4247" style="fill:#F2F2F2;" width="20.1698" x="8.97025" y="15.09335"/><line style="fill:none;stroke:#303030;stroke-width:0.7;stroke-linecap:round;stroke-linejoin:round;stroke-miterlimit:10;" x1="31.25005" x2="15.95995" y1="28.89855" y2="28.90475"/><polyline points="     11.25995,28.90665 8.46995,28.90785 8.48895,26.59785 29.14905,26.57945 29.14515,17.05945 32.53515,17.05805 38.33755,22.85565      38.33895,26.28565 39.52895,26.28525 39.53005,28.89525 35.95005,28.89665    " style="fill:none;stroke:#303030;stroke-width:0.7;stroke-linecap:round;stroke-linejoin:round;stroke-miterlimit:10;"/><polyline points="     29.14085,17.05815 29.14005,15.09335 8.96565,15.10155 8.97025,26.51805    " style="fill:none;stroke:#303030;stroke-width:0.7;stroke-linecap:round;stroke-linejoin:round;stroke-miterlimit:10;"/><polygon points="31.98765,18.50865 35.42325,21.95495 30.60725,21.95695 30.60585,18.50925    " style="fill:#F2F2F2;"/><polygon points="     31.98765,18.50865 35.42325,21.95495 30.60725,21.95695 30.60585,18.50925    " style="fill:none;stroke:#303030;stroke-width:0.7;stroke-linecap:round;stroke-linejoin:round;stroke-miterlimit:10;"/><circle cx="13.61295" cy="30.21665" r="2.69" style="fill:#464747;"/><circle cx="13.61295" cy="30.21665" r="2.69" style="fill:none;stroke:#303030;stroke-width:0.7;stroke-linecap:round;stroke-linejoin:round;stroke-miterlimit:10;"/><circle cx="33.60385" cy="30.20855" r="2.69" style="fill:#464747;"/><circle cx="33.60385" cy="30.20855" r="2.69" style="fill:none;stroke:#303030;stroke-width:0.7;stroke-linecap:round;stroke-linejoin:round;stroke-miterlimit:10;"/><circle cx="33.60385" cy="30.20855" r="0.7299" style="fill:#FFFFFF;"/><circle cx="13.61295" cy="30.21665" r="0.7299" style="fill:#FFFFFF;"/><line style="fill:none;stroke:#303030;stroke-width:0.7;stroke-linecap:round;stroke-linejoin:round;stroke-miterlimit:10;" x1="31.82925" x2="30.60835" y1="24.59835" y2="24.59885"/></g><g><g><path d="M14.19505,19.35835h-1.6474v1.0571h1.377c0.1281,0,0.2239,0.0281,0.2863,0.0857      c0.0624,0.0575,0.0944,0.1335,0.0944,0.2295c0,0.0959-0.032,0.1719-0.0958,0.2286c-0.0641,0.056-0.1584,0.084-0.2849,0.084      h-1.377v1.3612c0,0.1726-0.04,0.3013-0.1184,0.3845c-0.0767,0.084-0.1776,0.1256-0.2991,0.1256      c-0.1246,0-0.2255-0.0424-0.3038-0.1264c-0.0768-0.0847-0.1168-0.2126-0.1168-0.3837v-3.1781      c0-0.1208,0.0176-0.2184,0.0544-0.295c0.0352-0.076,0.0912-0.1312,0.1679-0.1664c0.0752-0.0344,0.1728-0.0519,0.2912-0.0519      h1.972c0.1343,0,0.2334,0.0294,0.2975,0.0887c0.0655,0.0592,0.0976,0.1368,0.0976,0.2326c0,0.0976-0.0321,0.1761-0.0976,0.2352      C14.42845,19.32865,14.32935,19.35835,14.19505,19.35835z" style="fill:#303030;"/><path d="M16.33665,21.07765h-0.2927v1.3268c0,0.1751-0.0385,0.3038-0.1167,0.3862      c-0.0769,0.0823-0.1776,0.1239-0.3007,0.1239c-0.1343,0-0.2367-0.0432-0.3104-0.1295      c-0.0735-0.0863-0.1102-0.2136-0.1102-0.3806v-3.1781c0-0.1807,0.0414-0.3111,0.1215-0.3918      c0.0816-0.0807,0.2111-0.1215,0.3918-0.1215h1.3611c0.1871,0,0.3487,0.0078,0.4814,0.0239      c0.1344,0.016,0.2543,0.0488,0.3614,0.0976c0.1296,0.0544,0.2432,0.1318,0.344,0.2335c0.099,0.1016,0.1742,0.2198,0.2271,0.3543      c0.0511,0.1335,0.0767,0.2758,0.0767,0.4261c0,0.3088-0.0863,0.5543-0.2606,0.739c-0.1744,0.1839-0.4366,0.3143-0.7902,0.3911      c0.1488,0.0791,0.2895,0.1959,0.4255,0.3494c0.1343,0.1544,0.256,0.3183,0.3614,0.4918c0.1071,0.1736,0.1887,0.3311,0.248,0.471      c0.0591,0.14,0.0896,0.236,0.0896,0.2888c0,0.0543-0.0177,0.1079-0.0529,0.1614c-0.0351,0.0536-0.0816,0.096-0.1424,0.1273      c-0.0591,0.0311-0.1295,0.0463-0.2078,0.0463c-0.0943,0-0.1728-0.0224-0.2368-0.0663c-0.0639-0.044-0.1183-0.1001-0.1646-0.1672      c-0.0465-0.068-0.1089-0.1671-0.1872-0.2991l-0.3359-0.5581c-0.1199-0.2047-0.2272-0.3607-0.323-0.4671      c-0.0945-0.1071-0.1905-0.1807-0.2879-0.22C16.60855,21.09675,16.48535,21.07765,16.33665,21.07765z M16.81485,19.34145h-0.7709      v1.1356h0.7485c0.2016,0,0.3711-0.0175,0.5071-0.0519c0.1375-0.0352,0.243-0.0943,0.3151-0.1775      c0.0719-0.084,0.1087-0.1984,0.1087-0.3456c0-0.1143-0.0304-0.215-0.0879-0.303c-0.0577-0.0871-0.1392-0.152-0.2416-0.1952      C17.29455,19.36225,17.10285,19.34145,16.81485,19.34145z" style="fill:#303030;"/><path d="M22.08645,19.35835h-1.8856v1.0147h1.7352c0.1281,0,0.2239,0.0289,0.2863,0.0857      c0.064,0.0575,0.0945,0.1326,0.0945,0.227c0,0.0937-0.0305,0.1705-0.0929,0.2296c-0.0623,0.0591-0.1583,0.0888-0.2879,0.0888      h-1.7352v1.1747h1.9496c0.1327,0,0.2319,0.0312,0.2974,0.0919c0.0672,0.0608,0.1009,0.1424,0.1009,0.2439      c0,0.0976-0.0337,0.1769-0.1009,0.2376c-0.0655,0.0616-0.1647,0.0919-0.2974,0.0919h-2.2727      c-0.1823,0-0.3135-0.0399-0.3934-0.1215c-0.0801-0.0799-0.1201-0.2111-0.1201-0.3911v-3.1052      c0-0.1208,0.0177-0.2184,0.0528-0.295c0.0368-0.076,0.0928-0.1312,0.168-0.1664c0.0768-0.0344,0.1742-0.0519,0.2927-0.0519      h2.2087c0.1328,0,0.2319,0.0294,0.2976,0.0887c0.0638,0.0592,0.0959,0.1368,0.0959,0.2326c0,0.0976-0.0321,0.1761-0.0959,0.2352      C22.31835,19.32865,22.21925,19.35835,22.08645,19.35835z" style="fill:#303030;"/><path d="M25.93455,19.35835h-1.8856v1.0147h1.7353c0.128,0,0.224,0.0289,0.2862,0.0857      c0.0641,0.0575,0.0945,0.1326,0.0945,0.227c0,0.0937-0.0304,0.1705-0.0928,0.2296c-0.0624,0.0591-0.1584,0.0888-0.2879,0.0888      h-1.7353v1.1747h1.9497c0.1328,0,0.2319,0.0312,0.2974,0.0919c0.0673,0.0608,0.1009,0.1424,0.1009,0.2439      c0,0.0976-0.0336,0.1769-0.1009,0.2376c-0.0655,0.0616-0.1646,0.0919-0.2974,0.0919h-2.2728      c-0.1823,0-0.3135-0.0399-0.3934-0.1215c-0.0801-0.0799-0.12-0.2111-0.12-0.3911v-3.1052c0-0.1208,0.0176-0.2184,0.0529-0.295      c0.0366-0.076,0.0927-0.1312,0.1678-0.1664c0.0768-0.0344,0.1743-0.0519,0.2927-0.0519h2.2087      c0.1328,0,0.2319,0.0294,0.2976,0.0887c0.0639,0.0592,0.096,0.1368,0.096,0.2326c0,0.0976-0.0321,0.1761-0.096,0.2352      C26.16645,19.32865,26.06735,19.35835,25.93455,19.35835z" style="fill:#303030;"/></g></g></g></g></svg>