<?xml version="1.0" ?><!DOCTYPE svg  PUBLIC '-//W3C//DTD SVG 1.1//EN'  'http://www.w3.org/Graphics/SVG/1.1/DTD/svg11.dtd'><svg enable-background="new 0 0 800 800" height="800px" id="Layer_1" version="1.1" viewBox="0 0 800 800" width="800px" xml:space="preserve" xmlns="http://www.w3.org/2000/svg" xmlns:xlink="http://www.w3.org/1999/xlink"><symbol id="fruit_1" viewBox="-13 -14.736 26 29.471"><path d="M9.107-4.35c0-4.633-4.398-8.387-9.824-8.387   c-5.426,0-9.823,3.755-9.823,8.387c0,4.631,4.398,8.386,9.823,8.386C4.708,4.036,9.107,0.282,9.107-4.35z" fill="#E0634F" stroke="#000000" stroke-miterlimit="10" stroke-width="4"/><path d="M9.105,4.942   C7.056,3.612,1.188,2.165-0.14,4.214c-1.33,2.049,2.383,6.816,4.432,8.146c2.048,1.329,6.115-1.304,6.115-1.304   S11.153,6.271,9.105,4.942z" fill="#9EBD2E" stroke="#000000" stroke-miterlimit="10" stroke-width="4"/></symbol><symbol id="fruit_2" viewBox="-24 -21.247 48 42.493"><polygon fill="#9EBD2E" points="-7.146,19.246 -0.116,6.305    7.483,19.246  " stroke="#000000" stroke-miterlimit="10" stroke-width="4"/><path d="M8.972,12.06c-1.697,0-3.313-0.435-4.785-1.218   c-1.472,0.783-3.089,1.218-4.785,1.218c-1.47,0-2.879-0.327-4.188-0.925c-1.308,0.598-2.717,0.925-4.187,0.925   c-6.827,0-12.362-7.009-12.362-15.652c0-8.646,5.535-15.654,12.362-15.654c1.47,0,2.879,0.327,4.187,0.924   c1.308-0.597,2.718-0.924,4.188-0.924c1.696,0,3.313,0.435,4.785,1.217c1.472-0.782,3.088-1.217,4.785-1.217   c6.828,0,12.362,7.008,12.362,15.654C21.334,5.051,15.8,12.06,8.972,12.06z" fill="#E9B71E" stroke="#000000" stroke-miterlimit="10" stroke-width="4"/></symbol><rect fill="#E9B71E" height="302.506" stroke="#000000" stroke-miterlimit="10" stroke-width="4" width="13.268" x="712.883" y="230.442"/><rect fill="#E9B71E" height="299.853" stroke="#000000" stroke-miterlimit="10" stroke-width="4" width="13.268" x="280.351" y="233.096"/><rect fill="#E9B71E" height="13.268" stroke="#000000" stroke-miterlimit="10" stroke-width="4" width="465.7" x="269.737" y="217.174"/><rect fill="#E9B71E" height="100.837" stroke="#000000" stroke-miterlimit="10" stroke-width="4" width="419.264" x="293.619" y="453.341"/><g><path d="M384.479,524.788c89.554,17.083,181.528,17.083,271.08,0c-3.378-17.713-6.756-35.426-10.136-53.139   c-82.854,15.807-167.953,15.807-250.809,0C391.236,489.361,387.858,507.075,384.479,524.788z" fill="#9EBD2E"/><path d="M384.479,524.788   c89.554,17.083,181.528,17.083,271.08,0c-3.378-17.713-6.756-35.426-10.136-53.139c-82.854,15.807-167.953,15.807-250.809,0   C391.236,489.361,387.858,507.075,384.479,524.788z" fill="none" stroke="#000000" stroke-miterlimit="10" stroke-width="4"/></g><g><g><path d="M451.927,514.844c0.933,0.011,1.865,0.017,2.797,0.019c1.037-5.676,2.074-11.349,3.11-17.024    c-0.826-0.32-1.654-0.645-2.478-0.969c0.181-0.955,0.362-1.908,0.544-2.862c6.348,1.21,12.722,2.236,19.112,3.072    c-0.286,2.184-0.572,4.369-0.857,6.552c-1.26-0.164-2.519-0.336-3.778-0.519c0.062-0.962,0.126-1.921,0.188-2.884    c-2.645-0.379-5.287-0.789-7.927-1.23c-0.364,2.184-0.732,4.366-1.096,6.548c2.888,0.484,5.78,0.932,8.68,1.343    c-0.177,1.23-0.35,2.459-0.523,3.688c-2.931-0.415-5.854-0.864-8.774-1.354c-0.362,2.178-0.729,4.355-1.094,6.532    c0.884,0.316,1.768,0.629,2.653,0.938c-0.151,0.954-0.304,1.907-0.457,2.863c-3.556-0.569-7.104-1.189-10.644-1.865    C451.564,516.74,451.744,515.792,451.927,514.844z" fill="#FFFFFF"/><path d="M491.01,498.784c2.744,0.224,4.852,0.994,6.346,2.343c1.492,1.352,2.191,3.121,2.071,5.326    c-0.068,1.212-0.462,2.245-1.188,3.1c-0.728,0.854-1.764,1.515-3.111,1.978c1.455,0.519,2.48,1.278,3.079,2.292    c0.596,1.012,0.857,2.241,0.779,3.686c-0.022,0.408-0.045,0.815-0.067,1.225c-0.028,0.527,0.06,0.944,0.268,1.249    c0.207,0.304,0.569,0.497,1.086,0.58c0.21,0.038,0.421,0.077,0.634,0.114c-0.049,0.97-0.097,1.94-0.144,2.911    c-0.899-0.044-1.797-0.092-2.693-0.143c-1.7-0.097-2.87-0.6-3.5-1.493c-0.63-0.895-0.894-2.016-0.799-3.359    c0.029-0.457,0.063-0.913,0.093-1.371c0.083-1.167-0.184-2.106-0.789-2.82c-0.607-0.713-1.502-1.133-2.689-1.26    c-1.381-0.11-2.76-0.229-4.14-0.359c-0.195,2.11-0.392,4.223-0.586,6.332c0.901,0.248,1.804,0.496,2.709,0.739    c-0.083,0.963-0.163,1.926-0.246,2.887c-3.577-0.303-7.155-0.66-10.727-1.072c0.11-0.961,0.222-1.919,0.333-2.879    c0.929-0.061,1.858-0.122,2.785-0.191c0.617-5.733,1.234-11.47,1.851-17.208c-0.849-0.258-1.693-0.518-2.539-0.782    c0.112-0.967,0.222-1.931,0.334-2.894c0.857,0.097,1.713,0.192,2.57,0.285C485.485,498.294,488.246,498.557,491.01,498.784z     M486.591,509.07c1.152,0.106,2.306,0.207,3.46,0.304c1.396,0.116,2.463-0.094,3.2-0.616c0.738-0.521,1.143-1.323,1.218-2.402    c0.075-1.081-0.206-1.966-0.837-2.66c-0.635-0.692-1.607-1.091-2.93-1.198c-1.158-0.096-2.316-0.195-3.476-0.304    C487.016,504.485,486.804,506.777,486.591,509.07z" fill="#FFFFFF"/><path d="M522.779,513.39c-2.846,0.036-5.694,0.038-8.541,0.005c-0.028,2.297-0.054,4.593-0.083,6.889    c2.769,0.031,5.538,0.031,8.308,0c0.065-0.961,0.13-1.923,0.193-2.885c1.296-0.016,2.593-0.038,3.89-0.07    c0.052,2.196,0.103,4.395,0.153,6.591c-6.854,0.16-13.713,0.124-20.567-0.108c0.033-0.968,0.067-1.933,0.1-2.899    c0.919-0.135,1.839-0.271,2.757-0.413c0.152-5.769,0.303-11.532,0.455-17.3c-0.863-0.19-1.726-0.381-2.588-0.577    c0.032-0.97,0.066-1.941,0.1-2.912c0.859,0.028,1.719,0.056,2.58,0.079c5.52,0.145,11.045,0.152,16.564,0.025    c0.053,2.2,0.104,4.402,0.155,6.605c-1.268,0.03-2.535,0.054-3.804,0.069c-0.084-0.961-0.171-1.919-0.254-2.879    c-2.616,0.029-5.23,0.029-7.845-0.002c-0.026,2.021-0.049,4.04-0.072,6.062c2.815,0.031,5.633,0.029,8.45-0.006    C522.748,510.906,522.764,512.147,522.779,513.39z" fill="#FFFFFF"/><path d="M551.266,506.009c-1.24,0.121-2.479,0.232-3.721,0.341c-0.309-1.082-0.617-2.164-0.922-3.246    c-0.45-0.227-1.089-0.407-1.922-0.542c-0.834-0.133-1.707-0.167-2.626-0.102c-1.342,0.095-2.361,0.438-3.063,1.041    c-0.701,0.602-1.029,1.343-0.979,2.225c0.049,0.813,0.475,1.464,1.286,1.939c0.81,0.473,2.192,0.943,4.153,1.388    c2.804,0.533,4.981,1.322,6.521,2.401c1.542,1.078,2.42,2.592,2.616,4.56c0.2,2.054-0.505,3.764-2.146,5.11    c-1.641,1.347-3.914,2.138-6.793,2.343c-2.058,0.146-3.938-0.041-5.627-0.557c-1.688-0.514-3.107-1.287-4.251-2.307    c-0.074-1.679-0.146-3.354-0.221-5.03c1.314-0.058,2.628-0.124,3.941-0.196c0.244,1.135,0.489,2.264,0.735,3.395    c0.538,0.367,1.26,0.654,2.164,0.857c0.905,0.205,1.908,0.267,3.002,0.191c1.412-0.101,2.465-0.458,3.157-1.056    c0.689-0.597,0.995-1.35,0.918-2.25c-0.077-0.925-0.483-1.638-1.22-2.145c-0.734-0.505-1.983-0.938-3.737-1.313    c-3.05-0.616-5.359-1.476-6.939-2.535c-1.584-1.059-2.404-2.583-2.489-4.557c-0.084-1.955,0.69-3.584,2.297-4.909    c1.608-1.326,3.656-2.082,6.165-2.29c1.859-0.133,3.572,0.017,5.151,0.447c1.579,0.43,2.934,1.057,4.073,1.889    C550.948,502.732,551.107,504.371,551.266,506.009z" fill="#FFFFFF"/><path d="M556.503,500.642c-0.109-0.967-0.22-1.931-0.33-2.896c3.331-0.383,6.658-0.812,9.979-1.294    c0.139,0.96,0.278,1.921,0.417,2.883c-0.844,0.29-1.686,0.575-2.532,0.859c0.314,2.296,0.63,4.595,0.945,6.89    c3.376-0.463,6.746-0.976,10.11-1.539c-0.384-2.287-0.766-4.572-1.149-6.861c-0.894-0.018-1.786-0.039-2.678-0.065    c-0.15-0.959-0.304-1.919-0.46-2.878c0.857-0.137,1.716-0.277,2.571-0.42c1.599-0.267,3.195-0.548,4.791-0.84    c0.857-0.157,1.711-0.315,2.565-0.479c0.183,0.955,0.363,1.908,0.545,2.863c-0.831,0.326-1.662,0.65-2.497,0.971    c1.036,5.676,2.074,11.351,3.109,17.026c0.938-0.004,1.878-0.011,2.817-0.024c0.182,0.952,0.363,1.899,0.543,2.849    c-3.542,0.675-7.091,1.298-10.645,1.864c-0.151-0.956-0.305-1.908-0.458-2.862c0.886-0.31,1.771-0.622,2.653-0.937    c-0.365-2.178-0.73-4.356-1.094-6.533c-3.401,0.569-6.811,1.086-10.22,1.557c0.299,2.186,0.6,4.376,0.898,6.563    c0.937,0.036,1.873,0.072,2.811,0.104c0.138,0.956,0.277,1.91,0.414,2.867c-3.561,0.518-7.127,0.979-10.697,1.388    c-0.109-0.96-0.22-1.92-0.33-2.88c0.894-0.268,1.782-0.539,2.671-0.814c-0.7-5.726-1.4-11.453-2.1-17.179    C558.27,500.771,557.386,500.707,556.503,500.642z" fill="#FFFFFF"/></g></g><path d="M712.634,357.873c0,0-146.55,40.009-160.344-79.656" fill="none" stroke="#000000" stroke-miterlimit="10" stroke-width="4"/><g><g id="XMLID_5_"><g><path d="M756.615,310.294h-64.908c-3.456-26.574-6.965-53.149-10.421-79.724v-0.287h51.97     C742.171,257.716,747.683,284.005,756.615,310.294z" fill="#9EBD2E"/><path d="M628.341,310.294c-1.728-26.574-3.456-53.149-5.185-79.724c0-0.092-0.018-0.194-0.018-0.287h58.147v0.287     c3.455,26.574,6.965,53.149,10.42,79.724H628.341z" fill="#E4F3F4"/><path d="M623.156,230.569c1.729,26.574,3.456,53.149,5.185,79.724h-63.094v-80.011h57.892     C623.139,230.376,623.156,230.478,623.156,230.569z" fill="#9EBD2E"/><path d="M507.374,230.282h57.873v80.011h-63.094c1.745-26.573,3.457-53.149,5.202-79.724     C507.356,230.478,507.356,230.376,507.374,230.282z" fill="#E4F3F4"/><path d="M507.374,230.282c-0.019,0.092-0.019,0.194-0.019,0.287c-1.744,26.574-3.456,53.149-5.202,79.724h-63.366     c3.474-26.573,6.947-53.149,10.404-79.724v-0.287H507.374z" fill="#9EBD2E"/><path d="M449.192,230.282v0.287c-3.456,26.574-6.931,53.149-10.404,79.724h-63.897     c5.202-26.573,10.439-53.149,15.692-79.724v-0.287H449.192z" fill="#E4F3F4"/><path d="M390.583,230.282v0.287c-5.252,26.574-10.49,53.149-15.692,79.724h-64.752     c7.033-26.563,13.998-53.149,21.031-79.724v-0.287H390.583z" fill="#9EBD2E"/><path d="M244.273,310.294h-0.461c8.932-26.289,17.864-52.578,26.781-80.01h60.578v0.287     c-7.033,26.574-13.997,53.16-21.03,79.724H244.273z" fill="#E4F3F4"/></g><g><path d="M681.286,230.282h51.97     c8.917,27.434,14.427,53.722,23.359,80.011h-64.908h-63.366h-63.094h-63.094h-63.366H374.89h-64.752h-65.866h-0.461     c8.932-26.289,17.865-52.577,26.781-80.011h60.578h59.413h58.609h58.182h57.874h57.892H681.286z" fill="none" stroke="#000000" stroke-miterlimit="10" stroke-width="4"/><path d="M270.729,230.569     c-8.795,26.574-17.642,53.149-26.456,79.724c-0.034,0.092-0.052,0.171-0.085,0.263" fill="none" stroke="#000000" stroke-miterlimit="10" stroke-width="4"/><path d="M331.17,230.569     c-7.033,26.574-13.998,53.16-21.031,79.724c-0.018,0.092-0.052,0.171-0.068,0.263" fill="none" stroke="#000000" stroke-miterlimit="10" stroke-width="4"/><path d="M390.583,230.569     c-5.252,26.574-10.49,53.149-15.692,79.724c-0.017,0.092-0.035,0.171-0.052,0.263" fill="none" stroke="#000000" stroke-miterlimit="10" stroke-width="4"/><path d="M449.192,230.569     c-3.456,26.574-6.931,53.149-10.404,79.724c-0.018,0.092-0.018,0.171-0.034,0.263" fill="none" stroke="#000000" stroke-miterlimit="10" stroke-width="4"/><path d="M502.138,310.557     c0-0.092,0.017-0.171,0.017-0.263c1.745-26.574,3.457-53.149,5.202-79.724c0-0.092,0-0.194,0.019-0.287     c0-0.297,0.051-0.595,0.085-0.902" fill="none" stroke="#000000" stroke-miterlimit="10" stroke-width="4"/><line fill="none" stroke="#000000" stroke-miterlimit="10" stroke-width="4" x1="565.249" x2="565.249" y1="310.294" y2="230.282"/><path d="M628.358,310.557     c0-0.092-0.018-0.171-0.018-0.263c-1.728-26.574-3.456-53.149-5.185-79.724c0-0.092-0.018-0.194-0.018-0.287     c-0.034-0.297-0.051-0.595-0.086-0.902" fill="none" stroke="#000000" stroke-miterlimit="10" stroke-width="4"/><path d="M691.742,310.557     c-0.019-0.092-0.019-0.171-0.035-0.263c-3.456-26.574-6.965-53.149-10.421-79.724" fill="none" stroke="#000000" stroke-linecap="round" stroke-linejoin="round" stroke-width="4"/></g></g></g><g><path d="M726.573,334.966c-0.539,0-1.081-0.166-1.542-0.494l-27.563-19.708c-0.937-0.671-1.334-1.868-0.986-2.965   c0.352-1.096,1.367-1.842,2.518-1.848c0,0,55.33-0.238,55.334-0.238c1.149,0,2.169,0.74,2.522,1.834   c0.357,1.098-0.036,2.3-0.975,2.974l-27.759,19.946C727.66,334.798,727.116,334.966,726.573,334.966z" fill="#9EBD2E"/><path d="M754.013,312.703L754.013,312.703 M754.333,312.366l-27.76,19.947l-27.563-19.708L754.333,312.366 M754.333,307.395   c-0.008,0-0.018,0-0.025,0l-55.32,0.071c-2.302,0.009-4.336,1.418-5.033,3.612c-0.698,2.194,0.096,4.546,1.97,5.886l27.563,19.687   c0.923,0.659,2.005,0.979,3.086,0.979c1.085,0,2.172-0.337,3.098-1.001l27.669-19.887c1.391-0.956,2.302-2.392,2.302-4.206   c0-2.929-2.371-5.14-5.299-5.14C754.341,307.395,754.337,307.395,754.333,307.395L754.333,307.395z"/></g><g><path d="M661.548,334.966c-0.54,0-1.081-0.166-1.543-0.494l-27.563-19.708c-0.937-0.671-1.335-1.868-0.985-2.965   c0.35-1.096,1.366-1.842,2.517-1.848c0,0,55.33-0.238,55.334-0.238c1.147,0,2.169,0.74,2.522,1.834   c0.357,1.098-0.036,2.3-0.975,2.974l-27.759,19.946C662.634,334.798,662.091,334.966,661.548,334.966z" fill="#BAE1E5"/><path d="M689,312.703L689,312.703 M689.306,312.366l-27.76,19.947l-27.562-19.708L689.306,312.366 M689.306,307.395   c-0.009,0-0.017,0-0.023,0l-55.322,0.071c-2.302,0.009-4.336,1.418-5.033,3.612c-0.698,2.194,0.097,4.546,1.97,5.886l27.563,19.687   c0.922,0.659,2.005,0.979,3.086,0.979c1.086,0,2.173-0.337,3.097-1.001l27.67-19.887c1.391-0.956,2.302-2.392,2.302-4.206   c0-2.929-2.369-5.14-5.299-5.14C689.313,307.395,689.31,307.395,689.306,307.395L689.306,307.395z"/></g><g><path d="M598.233,334.966c-0.54,0-1.081-0.166-1.543-0.494l-27.563-19.708c-0.938-0.669-1.337-1.868-0.987-2.964   c0.351-1.096,1.368-1.844,2.517-1.85c0,0,55.33-0.238,55.334-0.238c1.148,0,2.168,0.74,2.523,1.834   c0.356,1.098-0.037,2.299-0.976,2.974l-27.757,19.946C599.32,334.798,598.776,334.966,598.233,334.966z" fill="#9EBD2E"/><path d="M626.642,312.703L626.642,312.703 M625.99,312.366l-27.757,19.947l-27.565-19.708L625.99,312.366 M625.99,307.395   c-0.008,0-0.016,0-0.023,0l-55.321,0.071c-2.304,0.009-4.336,1.42-5.034,3.612c-0.699,2.195,0.097,4.546,1.97,5.886l27.565,19.687   c0.923,0.659,2.005,0.979,3.086,0.979c1.086,0,2.171-0.337,3.097-1.003l27.669-19.886c1.39-0.958,2.301-2.392,2.301-4.206   c0-2.929-2.371-5.14-5.3-5.14C625.997,307.395,625.993,307.395,625.99,307.395L625.99,307.395z"/></g><g><path d="M469.89,334.966c-0.54,0-1.08-0.166-1.542-0.494l-27.563-19.708c-0.937-0.671-1.334-1.868-0.985-2.965   c0.351-1.096,1.366-1.842,2.517-1.848c0,0,55.331-0.238,55.335-0.238c1.148,0,2.168,0.74,2.521,1.834   c0.358,1.098-0.036,2.3-0.975,2.974l-27.758,19.946C470.977,334.798,470.434,334.966,469.89,334.966z" fill="#9EBD2E"/><path d="M497.944,312.703L497.944,312.703 M497.65,312.366l-27.76,19.947l-27.563-19.708L497.65,312.366 M497.65,307.395   c-0.011,0-0.018,0-0.025,0l-55.32,0.071c-2.303,0.009-4.338,1.418-5.035,3.612c-0.698,2.194,0.097,4.546,1.971,5.886l27.563,19.687   c0.922,0.659,2.005,0.979,3.087,0.979c1.084,0,2.172-0.337,3.096-1.001l27.671-19.887c1.39-0.956,2.302-2.392,2.302-4.206   c0-2.929-2.371-5.14-5.299-5.14C497.657,307.395,497.653,307.395,497.65,307.395L497.65,307.395z"/></g><g><path d="M406.576,334.966c-0.542,0-1.081-0.166-1.544-0.494l-27.564-19.708c-0.937-0.671-1.334-1.868-0.986-2.964   c0.349-1.096,1.366-1.844,2.516-1.85c0,0,55.331-0.238,55.336-0.238c1.148,0,2.17,0.74,2.523,1.834   c0.357,1.098-0.038,2.3-0.976,2.974l-27.758,19.946C407.661,334.798,407.119,334.966,406.576,334.966z" fill="#BAE1E5"/><path d="M434.259,312.703L434.259,312.703 M434.334,312.366l-27.758,19.947l-27.565-19.708L434.334,312.366 M434.334,307.395   c-0.009,0-0.017,0-0.024,0l-55.321,0.071c-2.301,0.009-4.335,1.418-5.034,3.612c-0.697,2.195,0.097,4.546,1.971,5.886   l27.564,19.687c0.923,0.659,2.006,0.979,3.087,0.979c1.085,0,2.173-0.337,3.096-1.001l27.67-19.887   c1.391-0.956,2.301-2.39,2.301-4.206c0-2.929-2.371-5.14-5.298-5.14C434.342,307.395,434.338,307.395,434.334,307.395   L434.334,307.395z"/></g><g><path d="M343.209,334.966c-0.516,0-1.033-0.15-1.481-0.451l-29.313-19.708c-0.967-0.65-1.396-1.854-1.059-2.97   c0.337-1.115,1.362-1.88,2.529-1.885c0,0,58.841-0.238,58.845-0.238c1.164,0,2.192,0.759,2.536,1.872   c0.345,1.116-0.083,2.326-1.051,2.981l-29.52,19.947C344.247,334.815,343.727,334.966,343.209,334.966z" fill="#9EBD2E"/><path d="M373.226,312.703L373.226,312.703 M372.729,312.366l-29.52,19.947l-29.313-19.708L372.729,312.366 M372.729,307.395   c-0.006,0-0.014,0-0.021,0l-58.834,0.071c-2.332,0.009-4.382,1.454-5.058,3.686c-0.675,2.23,0.184,4.598,2.118,5.898l29.313,19.688   c0.896,0.6,1.929,0.891,2.962,0.891c1.038,0,2.074-0.308,2.971-0.914l29.428-19.888c1.464-0.944,2.432-2.59,2.432-4.46   c0-2.931-2.372-5.14-5.305-5.14l-0.001,0.168C372.731,307.395,372.73,307.395,372.729,307.395L372.729,307.395z"/></g><g><path d="M274.992,334.966c-0.514,0-1.028-0.148-1.475-0.448L244.06,314.81c-0.968-0.649-1.401-1.854-1.065-2.971   c0.337-1.117,1.364-1.883,2.531-1.889c0,0,59.128-0.238,59.131-0.238c1.165,0,2.194,0.76,2.537,1.875   c0.343,1.118-0.085,2.328-1.056,2.98l-29.662,19.947C276.026,334.816,275.509,334.966,274.992,334.966z" fill="#BAE1E5"/><path d="M304.233,312.703L304.233,312.703 M304.656,312.366l-29.664,19.947l-29.457-19.708L304.656,312.366 M304.656,307.395   c-0.008,0-0.016,0-0.022,0l-59.12,0.071c-2.333,0.009-4.386,1.457-5.059,3.691c-0.675,2.234,0.191,4.604,2.129,5.902l29.456,19.687   c0.894,0.597,1.923,0.885,2.951,0.885c1.034,0,2.066-0.306,2.962-0.909l29.571-19.887c1.468-0.943,2.441-2.424,2.441-4.299   c0-2.931-2.372-5.14-5.305-5.14h-0.001C304.659,307.395,304.657,307.395,304.656,307.395L304.656,307.395z"/></g><g><path d="M533.912,334.966c-0.531,0-1.063-0.159-1.519-0.477l-28.271-19.708c-0.95-0.662-1.36-1.861-1.017-2.966   s1.363-1.859,2.521-1.865c0,0,56.749-0.238,56.752-0.238c1.154,0,2.181,0.748,2.528,1.851c0.353,1.105-0.057,2.311-1.007,2.977   l-28.47,19.947C534.977,334.805,534.445,334.966,533.912,334.966z" fill="#BAE1E5"/><path d="M562.956,312.703L562.956,312.703 M562.382,312.366l-28.47,19.947l-28.271-19.708L562.382,312.366 M562.382,307.395   c-0.009,0-0.015,0-0.022,0l-56.741,0.071c-2.314,0.009-4.356,1.434-5.044,3.643c-0.691,2.209,0.132,4.568,2.03,5.891l28.271,19.687   c0.911,0.636,1.973,0.942,3.035,0.942c1.064,0,2.129-0.325,3.045-0.966l28.38-19.886c1.421-0.952,2.356-2.405,2.356-4.243   c0-2.93-2.373-5.14-5.303-5.14C562.389,307.395,562.385,307.395,562.382,307.395L562.382,307.395z"/></g><rect fill="#E9B71E" height="13.269" stroke="#000000" stroke-miterlimit="10" stroke-width="4" width="419.264" x="293.619" y="452.015"/><g><path d="M341.021,374.817   c7.567,12.794,13.631,25.59,22.918,38.384v30.853h31.843v-30.853c9.288-12.794,15.584-25.59,23.15-38.384   C394.766,360.525,365.187,360.525,341.021,374.817z" fill="#B7B7B7" stroke="#000000" stroke-miterlimit="10" stroke-width="4"/><path d="M438.107,424.152h-31.906   c0.217,6.634,4.175,11.017,9.482,13.109v13.427h13.268v-13.829C434.259,434.598,437.903,430.786,438.107,424.152z" fill="#B7B7B7" stroke="#000000" stroke-miterlimit="10" stroke-width="4"/><path d="M352.798,410.885h-31.908   c0.218,6.633,4.573,10.711,9.88,12.804v19.038h13.268v-19.439C349.344,421.025,352.594,416.191,352.798,410.885z" fill="#B7B7B7" stroke="#000000" stroke-miterlimit="10" stroke-width="4"/><rect fill="#B7B7B7" height="13.269" stroke="#000000" stroke-miterlimit="10" stroke-width="4" width="115.431" x="321.481" y="438.746"/><path d="M404.976,381.306c-4.322,7.309-9.287,14.983-13.067,21.618h-23.868   c-3.781-6.634-8.764-14.309-13.089-21.618c1.979-1.162,4.016-2.045,6.109-2.919c0.619-0.25,1.219-0.411,1.84-0.625   c10.994-4.071,23.132-4.033,34.123,0.037c0.622,0.215,1.225,0.319,1.844,0.57C400.963,379.242,403,380.143,404.976,381.306z" fill="#E4F3F4"/><path d="M381.457,404.228c-0.544,1.175-1.936,1.686-3.111,1.14c-1.177-0.542-1.686-1.936-1.142-3.111   c0.544-1.175,7.652-10.952,7.652-10.952S381.998,403.053,381.457,404.228z" fill="#E0634F"/><g><g><path d="M365.25,381.889l-1.668,0.968l-2.52-4.324c0.62-0.253,1.22-0.485,1.84-0.7L365.25,381.889z"/></g><g><path d="M398.869,378.535l-2.521,4.324l-1.666-0.969l2.346-4.054C397.648,378.049,398.25,378.281,398.869,378.535z"/></g><g><rect height="5.387" width="1.938" x="378.995" y="374.889"/></g></g><circle cx="379.661" cy="403.588" fill="#B75833" r="1.131"/><path d="M434.259,407.777   c0-5.355-4.642-10.16-9.995-10.16h-1.921c-5.353,0-9.313,4.805-9.313,10.16v8.479c0,5.354,3.959,9.224,9.313,9.224h1.921   c5.354,0,9.995-3.869,9.995-9.224V407.777z" fill="#E0634F" stroke="#000000" stroke-miterlimit="10" stroke-width="4"/></g><g><use height="29.471" overflow="visible" transform="matrix(1.6392 0 0 -1.6392 291.3413 542.3389)" width="26" x="-13" xlink:href="#fruit_1" y="-14.736"/><use height="29.471" overflow="visible" transform="matrix(1.6392 0 0 -1.6392 312.6528 542.3389)" width="26" x="-13" xlink:href="#fruit_1" y="-14.736"/><use height="29.471" overflow="visible" transform="matrix(-1.6392 0 0 -1.6392 330.6836 502.7959)" width="26" x="-13" xlink:href="#fruit_1" y="-14.736"/><use height="29.471" overflow="visible" transform="matrix(1.6392 0 0 -1.6392 360.1914 514.4707)" width="26" x="-13" xlink:href="#fruit_1" y="-14.736"/><use height="29.471" overflow="visible" transform="matrix(-1.6392 0 0 -1.6392 252 515.9102)" width="26" x="-13" xlink:href="#fruit_1" y="-14.736"/><use height="29.471" overflow="visible" transform="matrix(1.6392 0 0 -1.6392 288.0635 516.1104)" width="26" x="-13" xlink:href="#fruit_1" y="-14.736"/><use height="29.471" overflow="visible" transform="matrix(-1.6392 0 0 -1.6392 322.4873 517.5498)" width="26" x="-13" xlink:href="#fruit_1" y="-14.736"/><g><rect fill="#BF9316" height="79.606" stroke="#000000" stroke-miterlimit="10" stroke-width="4" width="22.555" x="219.319" y="519.681"/><rect fill="#BF9316" height="79.606" stroke="#000000" stroke-miterlimit="10" stroke-width="4" width="22.556" x="363.938" y="519.681"/><rect fill="#BF9316" height="29.189" stroke="#000000" stroke-miterlimit="10" stroke-width="4" width="176.462" x="215.339" y="562.138"/><rect fill="#BF9316" height="10.614" stroke="#000000" stroke-miterlimit="10" stroke-width="4" width="176.462" x="215.339" y="591.327"/><path d="M215.339,532.948v29.189h176.462v-29.189    H215.339z M329.442,548.03c0,3.396-2.752,6.147-6.147,6.147h-40.776c-3.395,0-6.147-2.752-6.147-6.147v-0.975    c0-3.395,2.752-6.146,6.147-6.146h40.776c3.395,0,6.147,2.752,6.147,6.146V548.03z" fill="#BF9316" stroke="#000000" stroke-miterlimit="10" stroke-width="4"/><g><line fill="none" stroke="#000000" stroke-miterlimit="10" stroke-width="4" x1="269.737" x2="269.737" y1="591.327" y2="601.941"/><line fill="none" stroke="#000000" stroke-miterlimit="10" stroke-width="4" x1="337.403" x2="337.403" y1="591.327" y2="601.941"/></g></g></g><rect enable-background="new    " height="9.288" opacity="0.4" width="417.937" x="294.946" y="467.936"/><line fill="none" stroke="#000000" stroke-miterlimit="10" stroke-width="4" x1="394.615" x2="376.082" y1="471.649" y2="465.91"/><line fill="none" stroke="#000000" stroke-miterlimit="10" stroke-width="4" x1="643.282" x2="661.816" y1="471.649" y2="465.91"/><g><path d="M734.795,487.174   c3.484,4.99,2.261,11.86-2.73,15.343l-0.36,0.255c-4.988,3.482-11.859,2.259-15.34-2.731l-5.552-7.951   c-3.481-4.99-2.262-11.858,2.73-15.342l0.358-0.254c4.993-3.485,11.862-2.259,15.346,2.73L734.795,487.174z" fill="#E9B71E" stroke="#000000" stroke-miterlimit="10" stroke-width="4"/><path d="M716.921,487.174   c3.483,4.99,2.264,11.86-2.729,15.343l-0.361,0.255c-4.991,3.482-11.858,2.259-15.342-2.731l-5.549-7.951   c-3.483-4.99-2.261-11.858,2.729-15.342l0.359-0.254c4.992-3.485,11.86-2.259,15.343,2.73L716.921,487.174z" fill="#E9B71E" stroke="#000000" stroke-miterlimit="10" stroke-width="4"/><path d="M744.08,477.806   c4.778-3.773,11.709-2.961,15.478,1.816l0.273,0.347c3.775,4.776,2.96,11.704-1.817,15.478l-7.605,6.009   c-4.778,3.771-11.705,2.958-15.477-1.817l-0.274-0.348c-3.772-4.774-2.957-11.702,1.817-15.477L744.08,477.806z" fill="#E9B71E" stroke="#000000" stroke-miterlimit="10" stroke-width="4"/><path d="M789.587,591.923l-4.978-3.243   c4.086-6.155,5.227-14.242,5.227-23.103v-7.399c0-19.286-33.999-53.092-44.35-53.092h-10.804h-15.87h-10.521   c-10.354,0-43.174,33.806-43.174,53.092v7.399c0,8.86,0.556,16.947,4.638,23.103l-5.762,3.243c-1.355,0.715-1.09,2.478,0.469,3.933   l0.488,0.405c1.556,1.455,3.942,2.05,5.296,1.331l6.021-2.47c6.15,3.845,16.06,6.82,32.022,6.82h10.521h15.871h10.804   c15.964,0,25.862-2.975,32.014-6.82l6.01,2.83c1.352,0.717,3.71-0.054,5.27-1.508l0.437-0.499   C790.771,594.488,790.94,592.638,789.587,591.923z" fill="#E4F3F4" stroke="#000000" stroke-miterlimit="10" stroke-width="4"/><path d="M767.28,504.831c0,4.418-4.28,8.216-8.882,8.216   h-65.301c-4.602,0-8.077-3.798-8.077-8.216v-0.392c0-4.418,3.476-8.642,8.077-8.642h65.301c4.603,0,8.882,4.224,8.882,8.642   V504.831z" fill="#E4F3F4" stroke="#000000" stroke-miterlimit="10" stroke-width="4"/></g><g><g><path d="M657.742,426.27c-9.405-1.53-14.692,7.054-9.095,14.763c-1.531,9.406,7.053,14.691,14.762,9.095    c9.404,1.53,14.692-7.054,9.095-14.764C674.036,425.96,665.451,420.672,657.742,426.27z" fill="#9EBD2E"/><path d="M657.742,426.27    c-9.405-1.53-14.692,7.054-9.095,14.763c-1.531,9.406,7.053,14.691,14.762,9.095c9.404,1.53,14.692-7.054,9.095-14.764    C674.036,425.96,665.451,420.672,657.742,426.27z" fill="none" stroke="#000000" stroke-miterlimit="10" stroke-width="4"/></g><path d="M645.588,431.566   c-5.329,1.264-54.323,17.469-53.06,22.8c1.268,5.328,52.316-2.238,57.644-3.503c5.331-1.269,8.622-6.611,7.357-11.942   C656.261,433.592,650.918,430.302,645.588,431.566z" fill="#E0634F" stroke="#000000" stroke-miterlimit="10" stroke-width="4"/></g><g><g><path d="M692.188,427.836c-9.403-1.531-14.688,7.051-9.093,14.762c-1.53,9.404,7.05,14.692,14.764,9.093    c9.404,1.531,14.689-7.051,9.091-14.762C708.487,427.526,699.901,422.237,692.188,427.836z" fill="#9EBD2E"/><path d="M692.188,427.836    c-9.403-1.531-14.688,7.051-9.093,14.762c-1.53,9.404,7.05,14.692,14.764,9.093c9.404,1.531,14.689-7.051,9.091-14.762    C708.487,427.526,699.901,422.237,692.188,427.836z" fill="none" stroke="#000000" stroke-miterlimit="10" stroke-width="4"/></g><path d="M680.037,433.132   c-5.328,1.267-54.325,17.469-53.059,22.8c1.265,5.331,52.317-2.239,57.645-3.504c5.326-1.265,8.62-6.611,7.354-11.941   C690.713,435.157,685.364,431.867,680.037,433.132z" fill="#E0634F" stroke="#000000" stroke-miterlimit="10" stroke-width="4"/></g><g><path d="M574.421,413.501c15.862-2.586,24.786,11.899,15.342,24.905c2.585,15.862-11.898,24.783-24.905,15.341   c-15.864,2.583-24.785-11.899-15.342-24.904C546.931,412.976,561.409,404.056,574.421,413.501z" fill="#9EBD2E"/><path d="M574.421,413.501   c15.862-2.586,24.786,11.899,15.342,24.905c2.585,15.862-11.898,24.783-24.905,15.341c-15.864,2.583-24.785-11.899-15.342-24.904   C546.931,412.976,561.409,404.056,574.421,413.501z" fill="none" stroke="#000000" stroke-miterlimit="10" stroke-width="4"/></g><g><path d="M542.572,413.501c15.864-2.586,24.787,11.899,15.343,24.905c2.58,15.862-11.904,24.783-24.907,15.341   c-15.865,2.583-24.784-11.899-15.343-24.904C515.081,412.976,529.563,404.056,542.572,413.501z" fill="#9EBD2E"/><path d="M542.572,413.501   c15.864-2.586,24.787,11.899,15.343,24.905c2.58,15.862-11.904,24.783-24.907,15.341c-15.865,2.583-24.784-11.899-15.343-24.904   C515.081,412.976,529.563,404.056,542.572,413.501z" fill="none" stroke="#000000" stroke-miterlimit="10" stroke-width="4"/></g><g><use height="42.493" overflow="visible" transform="matrix(1.6217 0.2395 0.2395 -1.6217 148.667 495)" width="48" x="-24" xlink:href="#fruit_2" y="-21.247"/><use height="42.493" id="XMLID_15_" overflow="visible" transform="matrix(1.6217 0.2395 0.2395 -1.6217 109.3247 463.8545)" width="48" x="-24" xlink:href="#fruit_2" y="-21.247"/><use height="42.493" overflow="visible" transform="matrix(1.6183 -0.2616 -0.2616 -1.6183 55.353 496.6396)" width="48" x="-24" xlink:href="#fruit_2" y="-21.247"/><use height="42.493" overflow="visible" transform="matrix(1.5101 -0.6377 -0.6377 -1.5101 102.9849 499.8906)" width="48" x="-24" xlink:href="#fruit_2" y="-21.247"/><g><rect fill="#BF9316" height="111.45" stroke="#000000" stroke-miterlimit="10" stroke-width="4" width="22.555" x="17.649" y="490.491"/><rect fill="#BF9316" height="111.45" stroke="#000000" stroke-miterlimit="10" stroke-width="4" width="22.556" x="162.268" y="490.491"/><rect fill="#BF9316" height="29.189" stroke="#000000" stroke-miterlimit="10" stroke-width="4" width="176.462" x="13.668" y="562.138"/><rect fill="#BF9316" height="29.189" stroke="#000000" stroke-miterlimit="10" stroke-width="4" width="176.462" x="13.668" y="532.948"/><rect fill="#BF9316" height="10.614" stroke="#000000" stroke-miterlimit="10" stroke-width="4" width="176.462" x="13.668" y="591.327"/><path d="M13.668,502.433v30.516H190.13v-30.516H13.668z     M127.771,518.841c0,3.395-2.752,6.146-6.147,6.146H80.848c-3.395,0-6.147-2.752-6.147-6.146v-0.975    c0-3.395,2.752-6.146,6.147-6.146h40.776c3.395,0,6.147,2.752,6.147,6.146V518.841z" fill="#BF9316" stroke="#000000" stroke-miterlimit="10" stroke-width="4"/><g><line fill="none" stroke="#000000" stroke-miterlimit="10" stroke-width="4" x1="68.066" x2="68.066" y1="591.327" y2="601.941"/><line fill="none" stroke="#000000" stroke-miterlimit="10" stroke-width="4" x1="135.732" x2="135.732" y1="591.327" y2="601.941"/></g></g></g><g><g><path d="M581.686,370.41c1.47,2.439,4.842,7.9,10.241,10.797c5.033,3.284,12.093,4.005,12.624,5.846    c0.979,1.827-7.379,6.179-15.992,4.378c-8.699-1.08-17.653-8.318-19.832-13.065c-3.248-4.089-5.653-15.347-2.68-23.596    c2.288-8.497,9.95-13.984,11.137-12.283c1.404,1.305-1.144,7.928-0.496,13.904C576.83,362.515,580.173,367.992,581.686,370.41z" fill="#E9B71E"/><path d="M581.686,370.41    c1.47,2.439,4.842,7.9,10.241,10.797c5.033,3.284,12.093,4.005,12.624,5.846c0.979,1.827-7.379,6.179-15.992,4.378    c-8.699-1.08-17.653-8.318-19.832-13.065c-3.248-4.089-5.653-15.347-2.68-23.596c2.288-8.497,9.95-13.984,11.137-12.283    c1.404,1.305-1.144,7.928-0.496,13.904C576.83,362.515,580.173,367.992,581.686,370.41z" fill="none" stroke="#000000" stroke-miterlimit="10" stroke-width="4"/></g><g><path d="M570.825,375.005c0.822,2.728,2.747,8.85,7.263,12.99c4.068,4.426,10.731,6.864,10.793,8.778    c0.499,2.012-8.678,4.169-16.579,0.302c-8.164-3.195-15.057-12.415-15.995-17.552c-2.142-4.763-1.697-16.267,3.218-23.529    c4.312-7.669,13.091-11.098,13.821-9.158c1.037,1.612-3.063,7.402-3.91,13.353C568.065,366.157,569.956,372.291,570.825,375.005z" fill="#E9B71E"/><path d="M570.825,375.005    c0.822,2.728,2.747,8.85,7.263,12.99c4.068,4.426,10.731,6.864,10.793,8.778c0.499,2.012-8.678,4.169-16.579,0.302    c-8.164-3.195-15.057-12.415-15.995-17.552c-2.142-4.763-1.697-16.267,3.218-23.529c4.312-7.669,13.091-11.098,13.821-9.158    c1.037,1.612-3.063,7.402-3.91,13.353C568.065,366.157,569.956,372.291,570.825,375.005z" fill="none" stroke="#000000" stroke-miterlimit="10" stroke-width="4"/></g><g><path d="M558.037,366.38c-0.683,2.767-2.158,9.012-0.394,14.876c1.241,5.883,5.721,11.385,4.796,13.062    c-0.6,1.984-9.591-0.85-14.407-8.213c-5.386-6.916-6.603-18.363-4.783-23.26c0.592-5.189,6.854-14.851,14.788-18.583    c7.627-4.389,16.924-2.85,16.562-0.81c0.068,1.915-6.416,4.795-10.186,9.481C560.188,357.365,558.678,363.604,558.037,366.38z" fill="#E9B71E"/><path d="M558.037,366.38    c-0.683,2.767-2.158,9.012-0.394,14.876c1.241,5.883,5.721,11.385,4.796,13.062c-0.6,1.984-9.591-0.85-14.407-8.213    c-5.386-6.916-6.603-18.363-4.783-23.26c0.592-5.189,6.854-14.851,14.788-18.583c7.627-4.389,16.924-2.85,16.562-0.81    c0.068,1.915-6.416,4.795-10.186,9.481C560.188,357.365,558.678,363.604,558.037,366.38z" fill="none" stroke="#000000" stroke-miterlimit="10" stroke-width="4"/></g><rect fill="#E9B71E" height="10.027" stroke="#000000" stroke-miterlimit="10" stroke-width="4" transform="matrix(-0.7039 0.7103 -0.7103 -0.7039 1223.0387 171.6169)" width="13.698" x="568.899" y="335.722"/></g><g><g><path d="M657.238,380.451c2.838,0.288,9.228,0.866,14.784-1.71c5.649-2.056,10.462-7.27,12.255-6.588    c2.05,0.311,0.512,9.611-6.1,15.421c-6.088,6.307-17.249,9.126-22.352,8.02c-5.219,0.144-15.671-4.691-20.484-12.016    c-5.421-6.931-5.21-16.354-3.137-16.282c1.886-0.338,5.651,5.675,10.82,8.742C648.012,379.595,654.398,380.208,657.238,380.451z" fill="#E9B71E"/><path d="M657.238,380.451    c2.838,0.288,9.228,0.866,14.784-1.71c5.649-2.056,10.462-7.27,12.255-6.588c2.05,0.311,0.512,9.611-6.1,15.421    c-6.088,6.307-17.249,9.126-22.352,8.02c-5.219,0.144-15.671-4.691-20.484-12.016c-5.421-6.931-5.21-16.354-3.137-16.282    c1.886-0.338,5.651,5.675,10.82,8.742C648.012,379.595,654.398,380.208,657.238,380.451z" fill="none" stroke="#000000" stroke-miterlimit="10" stroke-width="4"/></g><g><path d="M654.396,391.897c2.677,0.974,8.728,3.113,14.745,1.985c5.985-0.599,11.935-4.464,13.504-3.363    c1.908,0.807-1.875,9.442-9.712,13.442c-7.451,4.612-18.966,4.591-23.636,2.258c-5.097-1.145-14.031-8.409-16.89-16.695    c-3.548-8.054-1.018-17.134,0.971-16.553c1.911,0.137,4.078,6.896,8.334,11.141C645.663,388.792,651.703,390.961,654.396,391.897z    " fill="#E9B71E"/><path d="M654.396,391.897    c2.677,0.974,8.728,3.113,14.745,1.985c5.985-0.599,11.935-4.464,13.504-3.363c1.908,0.807-1.875,9.442-9.712,13.442    c-7.451,4.612-18.966,4.591-23.636,2.258c-5.097-1.145-14.031-8.409-16.89-16.695c-3.548-8.054-1.018-17.134,0.971-16.553    c1.911,0.137,4.078,6.896,8.334,11.141C645.663,388.792,651.703,390.961,654.396,391.897z" fill="none" stroke="#000000" stroke-miterlimit="10" stroke-width="4"/></g><g><path d="M639.823,396.946c1.801,2.207,5.912,7.138,11.662,9.243c5.448,2.539,12.54,2.258,13.324,4.006    c1.228,1.669-6.436,7.16-15.214,6.595c-8.765,0.155-18.652-5.743-21.477-10.136c-3.794-3.588-7.766-14.397-5.989-22.98    c1.067-8.736,7.879-15.249,9.293-13.734c1.575,1.093-0.018,8.011,1.472,13.835C633.903,389.817,637.986,394.766,639.823,396.946z" fill="#E9B71E"/><path d="M639.823,396.946    c1.801,2.207,5.912,7.138,11.662,9.243c5.448,2.539,12.54,2.258,13.324,4.006c1.228,1.669-6.436,7.16-15.214,6.595    c-8.765,0.155-18.652-5.743-21.477-10.136c-3.794-3.588-7.766-14.397-5.989-22.98c1.067-8.736,7.879-15.249,9.293-13.734    c1.575,1.093-0.018,8.011,1.472,13.835C633.903,389.817,637.986,394.766,639.823,396.946z" fill="none" stroke="#000000" stroke-miterlimit="10" stroke-width="4"/></g><rect fill="#E9B71E" height="10.024" stroke="#000000" stroke-miterlimit="10" stroke-width="4" transform="matrix(0.1455 0.9894 -0.9894 0.1455 901.7696 -309.2531)" width="13.698" x="623.067" y="362.409"/></g><path d="M718.263,374.983  c-0.845-0.445,0.852-5.64-0.086-5.635c-0.531-0.775-1.223-1.416-2.072-1.859c-0.729-0.386-1.52-0.59-2.33-0.637  c-0.497-0.639-3.73,3.818-4.467,3.432c-3.406-1.789-8.003,0.26-10.268,4.574c-2.263,4.313-1.339,9.261,2.072,11.049  c0.733,0.384,1.521,0.591,2.332,0.635c0.495,0.641,1.113,1.173,1.847,1.558c0.846,0.444,1.769,0.651,2.706,0.646  c0.527,0.775,1.223,1.416,2.068,1.858c3.409,1.79,8.003-0.257,10.271-4.572C722.598,381.718,721.668,376.773,718.263,374.983z" fill="#B7B7B7" stroke="#000000" stroke-miterlimit="10" stroke-width="4"/><path d="M714.983,397.933  c-0.846-0.446,0.853-5.639-0.087-5.637c-0.529-0.775-1.223-1.415-2.071-1.859c-0.729-0.386-1.521-0.59-2.331-0.637  c-0.496-0.641-3.729,3.818-4.466,3.434c-3.406-1.79-8.004,0.259-10.267,4.572c-2.265,4.314-1.339,9.261,2.071,11.049  c0.733,0.383,1.521,0.59,2.331,0.635c0.496,0.643,1.114,1.174,1.848,1.559c0.848,0.444,1.767,0.65,2.706,0.646  c0.528,0.775,1.223,1.415,2.069,1.858c3.408,1.788,8.003-0.259,10.27-4.573C719.319,404.668,718.391,399.722,714.983,397.933z" fill="#B7B7B7" stroke="#000000" stroke-miterlimit="10" stroke-width="4"/><path d="M732.241,386.653  c-0.839,0.457-4.213-3.844-4.731-3.06c-0.938,0.008-1.856,0.228-2.695,0.686c-0.727,0.396-1.339,0.935-1.825,1.584  c-0.806,0.056,1.099,5.225,0.367,5.62c-3.382,1.835-4.235,6.796-1.907,11.076c2.324,4.282,6.951,6.264,10.335,4.426  c0.727-0.394,1.336-0.936,1.822-1.583c0.808-0.056,1.594-0.274,2.324-0.672c0.839-0.453,1.523-1.104,2.039-1.889  c0.941-0.008,1.855-0.229,2.696-0.686c3.381-1.837,4.238-6.796,1.91-11.079C740.249,386.797,735.621,384.817,732.241,386.653z" fill="#B7B7B7" stroke="#000000" stroke-miterlimit="10" stroke-width="4"/><path d="M728.962,362.064  c-0.838,0.457-4.214-3.842-4.731-3.061c-0.938,0.007-1.855,0.228-2.694,0.686c-0.729,0.395-1.339,0.935-1.825,1.584  c-0.808,0.056,1.096,5.225,0.366,5.62c-3.38,1.836-4.233,6.797-1.906,11.078c2.324,4.281,6.949,6.262,10.335,4.424  c0.727-0.395,1.335-0.937,1.821-1.584c0.809-0.056,1.595-0.274,2.325-0.67c0.838-0.457,1.522-1.105,2.039-1.888  c0.942-0.009,1.855-0.229,2.695-0.686c3.38-1.837,4.237-6.795,1.911-11.077C736.969,362.208,732.344,360.228,728.962,362.064z" fill="#B7B7B7" stroke="#000000" stroke-miterlimit="10" stroke-width="4"/><path d="M732.241,409.603  c-0.839,0.458-4.213-3.842-4.731-3.062c-0.938,0.011-1.856,0.23-2.695,0.686c-0.727,0.397-1.339,0.937-1.825,1.584  c-0.806,0.058,1.099,5.225,0.367,5.62c-3.382,1.836-4.235,6.796-1.907,11.078c2.324,4.28,6.951,6.262,10.335,4.425  c0.727-0.395,1.336-0.936,1.822-1.584c0.808-0.057,1.594-0.274,2.324-0.67c0.839-0.455,1.523-1.105,2.039-1.89  c0.941-0.009,1.855-0.228,2.696-0.687c3.381-1.838,4.238-6.795,1.91-11.077C740.249,409.747,735.621,407.765,732.241,409.603z" fill="#B7B7B7" stroke="#000000" stroke-miterlimit="10" stroke-width="4"/><path d="M714.062,420.869  c-0.926-0.228-0.522-5.68-1.434-5.449c-0.698-0.628-1.522-1.081-2.453-1.312c-0.804-0.2-1.62-0.207-2.416-0.061  c-0.635-0.503-2.71,4.601-3.517,4.4c-3.732-0.919-7.71,2.168-8.873,6.896c-1.167,4.731,0.914,9.314,4.651,10.233  c0.804,0.199,1.621,0.209,2.414,0.061c0.636,0.503,1.364,0.871,2.167,1.068c0.93,0.231,1.874,0.213,2.785-0.018  c0.699,0.627,1.524,1.08,2.455,1.309c3.735,0.921,7.709-2.166,8.873-6.895C719.882,426.373,717.799,421.791,714.062,420.869z" fill="#B7B7B7" stroke="#000000" stroke-miterlimit="10" stroke-width="4"/></svg>