<?xml version="1.0" ?><svg id="Layer_1" style="enable-background:new 0 0 512 512;" version="1.1" viewBox="0 0 512 512" xml:space="preserve" xmlns="http://www.w3.org/2000/svg" xmlns:xlink="http://www.w3.org/1999/xlink"><style type="text/css">
	.st0{fill:#FFBE00;stroke:#000000;stroke-width:5;stroke-linecap:round;stroke-linejoin:round;stroke-miterlimit:10;}
	.st1{fill:none;stroke:#00B4EC;stroke-width:5;stroke-linecap:round;stroke-linejoin:round;stroke-miterlimit:10;}
</style><g><path class="st0" d="M352,397.4l24.6-24.6c9.8-9.8,8.8-26-2.1-34.6l-38.6-30c-8.4-6.5-20.2-6.5-28.5,0.1l-8.6,6.8   c-9.2,7.3-22.4,6.5-30.7-1.8l-69-69c-8.3-8.3-9.1-21.5-1.8-30.7l6.8-8.6c6.6-8.4,6.6-20.1,0.1-28.5l-30-38.6   c-8.5-11-24.8-12-34.6-2.1l-24.6,24.6c-17,17-16.9,64.6,77.7,159.2C287.5,414.3,336.4,413,352,397.4z"/><path class="st1" d="M406.5,249.9c0-79.7-64.6-144.2-144.2-144.2"/><path class="st1" d="M262.3,140.3c60.5,0,109.6,49.1,109.6,109.6"/><path class="st1" d="M262.3,174.9c41.4,0,75,33.6,75,75"/><path class="st1" d="M262.3,209.5c22.3,0,40.4,18.1,40.4,40.4"/></g></svg>