<?xml version="1.0" ?><!DOCTYPE svg  PUBLIC '-//W3C//DTD SVG 1.1//EN'  'http://www.w3.org/Graphics/SVG/1.1/DTD/svg11.dtd'><svg enable-background="new 0 0 128 128" id="Слой_1" version="1.1" viewBox="0 0 128 128" xml:space="preserve" xmlns="http://www.w3.org/2000/svg" xmlns:xlink="http://www.w3.org/1999/xlink"><g><path d="M117.886,103.055H10.114C5.633,103.055,2,99.422,2,94.941V33.059c0-4.481,3.633-8.114,8.114-8.114h107.771   c4.481,0,8.114,3.633,8.114,8.114v61.881C126,99.422,122.367,103.055,117.886,103.055z" fill="#46B19B"/><g><path d="M54.727,64.085c0-15.394,12.479-27.872,27.873-27.872c15.395,0,27.87,12.477,27.87,27.872    c0,15.392-12.475,27.872-27.87,27.872C67.206,91.957,54.727,79.477,54.727,64.085L54.727,64.085z" fill="#F6CA41"/><path d="M63.93,43.338c0.014,0-1.459,1.274-2.444,2.522h4.959c0,0,1.695,1.833,2.322,3.216h-9.692    c0,0-0.939,1.476-1.564,2.724h12.82c0,0,1.172,2.193,1.427,3.351H56.171c0,0-0.535,1.519-0.759,2.636l17.063-0.022    c0.469,2.143,1.607,8.373-0.738,15.255l-15.5,0.021c0.247,0.824,0.67,1.943,1.072,2.767h13.312    c-0.538,1.119-1.32,2.524-1.767,3.233l-9.759,0.007c0.515,0.781,1.34,2.01,1.876,2.57l6.009-0.003    c-1.128,1.557-3.038,3.17-3.038,3.17h-0.047l0.062,0.021c-4.937,4.446-11.474,7.151-18.641,7.151    c-15.394,0-27.872-12.48-27.872-27.872c0-15.394,12.477-27.872,27.872-27.872C52.471,36.213,58.995,38.907,63.93,43.338    L63.93,43.338z" fill="#C55C44"/><g><path d="M50.72,59.727l-0.45,2.507l-2.445-0.062c0,0-1.221,0.319-1.221,0.834c0,0.514,0.9,1.159,2.251,1.736     c1.352,0.581,1.416,2.186,1.286,3.281c-0.128,1.093-0.321,3.362-4.244,3.474c-2.252,0.064-3.474-0.386-3.474-0.386l0.515-2.572     c0,0,2.895,0.772,3.538,0.321c0.643-0.45,1.415-1.222,0.192-1.736c-1.221-0.514-3.216-1.353-3.216-3.408     c0-2.058,0.836-3.216,2.123-3.796C46.859,59.341,49.111,59.403,50.72,59.727L50.72,59.727z" fill="#FFFFFF"/><polygon fill="#FFFFFF" points="31.396,71.2 28.553,71.2 30.206,61.427 26.692,71.141 24.731,71.141 24.257,61.038 22.538,71.2      19.849,71.2 22.383,56.285 25.645,56.285 26.787,64.873 30.58,56.285 33.93,56.285 31.396,71.2    "/><path d="M53.259,71.408c-0.925,0-1.586-0.208-1.982-0.598c-0.399-0.417-0.597-1.046-0.597-1.852     c0-0.21,0.022-0.417,0.045-0.6c0.022-0.207,0.065-0.445,0.088-0.716l1.709-9.545h2.666l-0.388,1.864h2.49l-0.418,2.359h-2.489     L53.7,66.39c-0.044,0.266-0.088,0.535-0.133,0.833c-0.043,0.271-0.065,0.541-0.065,0.719c0,0.417,0.065,0.688,0.241,0.838     c0.155,0.148,0.42,0.24,0.771,0.24c0.133,0,0.309-0.033,0.528-0.091c0.222-0.088,0.421-0.148,0.552-0.24h0.221l-0.419,2.393     c-0.309,0.119-0.616,0.179-0.946,0.236C54.118,71.377,53.722,71.408,53.259,71.408L53.259,71.408z" fill="#FFFFFF"/><path d="M72.388,63.104c-0.583-0.45-1.879-0.359-2.148,0.564L68.961,71.2h-2.664l1.917-11.238h2.664l-0.055,0.907     c0.509-0.509,1.071-0.939,2.498-0.895C73.412,59.977,72.457,61.645,72.388,63.104L72.388,63.104z" fill="#FFFFFF"/><path d="M77.424,71.5c-1.478,0-2.646-0.507-3.436-1.496c-0.817-0.984-1.214-2.419-1.214-4.274     c0-1.465,0.178-2.781,0.529-3.975c0.352-1.197,0.86-2.21,1.474-3.078c0.619-0.835,1.348-1.494,2.208-1.971     c0.831-0.48,1.738-0.719,2.684-0.719c0.748,0,1.457,0.12,2.117,0.33c0.319,0.109,0.934,0.401,0.934,0.401l-0.619,3.544     c-0.309-0.392-0.617-0.703-0.933-0.926c-0.464-0.298-1.015-0.48-1.633-0.48c-1.102,0-2.005,0.6-2.71,1.795     c-0.726,1.196-1.081,2.722-1.081,4.574c0,1.195,0.2,2.064,0.597,2.6c0.396,0.507,0.969,0.777,1.721,0.777     c0.681,0,1.319-0.183,1.917-0.538c0.281-0.186,0.557-0.381,0.828-0.603l-0.621,3.382c0,0-0.321,0.157-0.474,0.21     c-0.372,0.148-0.702,0.238-0.989,0.326C78.415,71.436,77.976,71.5,77.424,71.5L77.424,71.5z" fill="#FFFFFF"/><path d="M37.957,70.81c-0.109,0.091-0.221,0.15-0.309,0.21c-0.286,0.15-0.528,0.269-0.771,0.357     c-0.242,0.059-0.573,0.123-1.014,0.123c-0.684,0-1.256-0.271-1.674-0.778c-0.441-0.541-0.662-1.227-0.662-2.062     c0-0.896,0.153-1.645,0.464-2.271c0.309-0.602,0.769-1.11,1.388-1.467c0.573-0.357,1.256-0.597,2.028-0.747l0.55-0.091     c0.639-0.119,1.301-0.207,2.028-0.24c0-0.059,0-0.119,0.022-0.208c0.022-0.088,0.022-0.179,0.022-0.298     c0-0.478-0.155-0.807-0.485-1.017c-0.331-0.178-0.816-0.267-1.454-0.267h-0.133c-0.397,0.029-0.837,0.119-1.321,0.298     c-0.529,0.21-0.927,0.359-1.191,0.509h-0.242l0.397-2.66c0.309-0.119,0.793-0.239,1.433-0.358     c0.308-0.091,0.616-0.12,0.925-0.151c0.332-0.06,0.683-0.06,1.015-0.06c1.301,0,2.247,0.239,2.864,0.687     c0.617,0.45,0.904,1.168,0.904,2.152c0,0.121,0,0.298-0.022,0.51c-0.022,0.21-0.045,0.39-0.067,0.567L41.352,71.2h-2.646     l0.2-1.197c-0.155,0.15-0.375,0.329-0.596,0.54C38.178,70.631,38.068,70.722,37.957,70.81L37.957,70.81z M37.957,66.15     c-0.287,0.06-0.528,0.148-0.728,0.24c-0.308,0.147-0.529,0.355-0.682,0.626c-0.177,0.271-0.243,0.628-0.243,1.076     c0,0.39,0.11,0.657,0.308,0.807c0.221,0.148,0.508,0.24,0.926,0.24c0.132,0,0.265-0.029,0.419-0.091     c0.133-0.028,0.266-0.088,0.42-0.148c0.286-0.179,0.571-0.39,0.836-0.627l0.397-2.391c-0.462,0.06-0.926,0.121-1.32,0.21     C38.178,66.09,38.068,66.119,37.957,66.15L37.957,66.15z" fill="#FFFFFF"/><path d="M61.003,61.904c-0.352,0.06-0.682,0.24-0.946,0.536c-0.375,0.421-0.662,0.959-0.859,1.676h1.806h1.786     c0-0.119,0.022-0.21,0.022-0.329c0-0.088,0.022-0.208,0.022-0.296c0-0.541-0.133-0.928-0.376-1.229     c-0.241-0.266-0.571-0.416-1.035-0.416C61.29,61.845,61.136,61.873,61.003,61.904L61.003,61.904z M61.003,68.959H61.4     c0.573,0,1.124-0.119,1.653-0.39c0.506-0.271,0.97-0.567,1.342-0.896h0.309l-0.506,2.898c-0.506,0.303-1.058,0.54-1.629,0.69     c-0.485,0.148-1.015,0.209-1.566,0.24h-0.241c-1.432,0-2.513-0.419-3.284-1.286c-0.77-0.838-1.146-2.003-1.146-3.496     c0-1.017,0.134-1.972,0.377-2.812c0.241-0.865,0.616-1.614,1.078-2.271c0.463-0.627,1.015-1.104,1.697-1.493     c0.485-0.239,0.993-0.418,1.521-0.509c0.242-0.028,0.484-0.028,0.728-0.028c1.235,0,2.16,0.326,2.799,1.014     c0.616,0.659,0.927,1.674,0.927,2.991c0,0.448-0.022,0.897-0.088,1.346c-0.067,0.416-0.155,0.866-0.265,1.283h-4.101h-2.071     v0.119v0.119c0,0.777,0.221,1.376,0.617,1.822C59.881,68.66,60.364,68.898,61.003,68.959L61.003,68.959z" fill="#FFFFFF"/><path d="M85.975,70.81c-0.109,0.091-0.221,0.15-0.329,0.21c-0.264,0.15-0.527,0.269-0.769,0.357     c-0.243,0.059-0.576,0.123-0.993,0.123c-0.707,0-1.257-0.271-1.696-0.778c-0.441-0.541-0.641-1.227-0.641-2.062     c0-0.896,0.153-1.645,0.466-2.271c0.307-0.602,0.769-1.11,1.367-1.467c0.571-0.357,1.255-0.597,2.046-0.747     c0.178-0.033,0.353-0.06,0.55-0.091c0.619-0.119,1.303-0.207,2.008-0.24c0.021-0.059,0.021-0.119,0.041-0.208     c0-0.088,0.024-0.179,0.024-0.298c0-0.478-0.174-0.807-0.488-1.017c-0.329-0.178-0.814-0.267-1.451-0.267h-0.135     c-0.417,0.029-0.857,0.119-1.319,0.298c-0.531,0.21-0.928,0.359-1.191,0.509h-0.241l0.376-2.66     c0.309-0.119,0.79-0.239,1.453-0.358c0.309-0.091,0.614-0.12,0.922-0.151c0.335-0.06,0.66-0.06,1.015-0.06     c1.302,0,2.246,0.239,2.867,0.687c0.593,0.45,0.902,1.168,0.902,2.152c0,0.121,0,0.298-0.021,0.51     c-0.024,0.21-0.045,0.39-0.071,0.567L89.369,71.2h-2.646l0.204-1.197c-0.179,0.15-0.376,0.329-0.617,0.54L85.975,70.81     L85.975,70.81z M85.975,66.15c-0.284,0.06-0.526,0.148-0.746,0.24c-0.285,0.147-0.531,0.355-0.681,0.626     c-0.159,0.271-0.246,0.628-0.246,1.076c0,0.39,0.112,0.657,0.333,0.807c0.197,0.148,0.507,0.24,0.904,0.24     c0.129,0,0.288-0.029,0.438-0.091c0.135-0.028,0.267-0.088,0.397-0.148c0.309-0.179,0.572-0.39,0.84-0.627l0.417-2.391     c-0.484,0.06-0.926,0.121-1.345,0.21C86.175,66.09,86.066,66.119,85.975,66.15L85.975,66.15z" fill="#FFFFFF"/><path d="M97.222,63.104c-0.583-0.45-1.879-0.359-2.148,0.564L93.797,71.2h-2.665l1.917-11.238h2.664l-0.055,0.907     c0.505-0.509,1.071-0.939,2.502-0.895C98.246,59.977,97.291,61.645,97.222,63.104L97.222,63.104z" fill="#FFFFFF"/><path clip-rule="evenodd" d="M102.458,62.352c-0.133,0.06-0.262,0.152-0.374,0.24     c-0.355,0.238-0.64,0.6-0.881,1.017c-0.2,0.416-0.376,0.897-0.484,1.524c-0.135,0.597-0.2,1.197-0.2,1.764     c0,0.688,0.133,1.165,0.35,1.462c0.247,0.329,0.597,0.481,1.06,0.481c0.179,0,0.355-0.033,0.529-0.121     c0.088-0.031,0.155-0.059,0.243-0.119c0.264-0.15,0.505-0.302,0.748-0.509l0.947-5.529c-0.153-0.091-0.329-0.183-0.571-0.241     c-0.222-0.088-0.419-0.117-0.598-0.117C102.942,62.204,102.701,62.261,102.458,62.352L102.458,62.352z M102.458,70.603     c-0.2,0.179-0.421,0.357-0.662,0.507c-0.219,0.119-0.44,0.238-0.636,0.298c-0.224,0.06-0.488,0.091-0.772,0.091     c-0.817,0-1.457-0.36-1.941-1.048c-0.462-0.716-0.705-1.733-0.705-3.019c0-1.076,0.109-2.093,0.376-3.019     c0.242-0.924,0.593-1.764,1.036-2.477c0.441-0.72,0.946-1.259,1.539-1.677c0.576-0.39,1.148-0.597,1.765-0.628h0.088     c0.46,0,0.86,0.06,1.191,0.179c0.329,0.119,0.684,0.33,1.035,0.599l0.593-3.919h2.665L105.587,71.2h-2.665l0.196-1.165     C102.877,70.241,102.655,70.424,102.458,70.603L102.458,70.603z" fill="#FFFFFF" fill-rule="evenodd"/></g></g></g></svg>