<?xml version="1.0" ?><svg enable-background="new 0 0 500 500" id="Layer_2" version="1.1" viewBox="0 0 500 500" xml:space="preserve" xmlns="http://www.w3.org/2000/svg" xmlns:xlink="http://www.w3.org/1999/xlink"><path d="M455.357,116.326c-0.806-2.771-2.769-5.058-5.384-6.274c-2.617-1.215-5.63-1.244-8.268-0.076  c-0.523,0.232-53.13,23.526-121.258,53.188c-7.841,3.413-15.446,7.262-22.74,11.481c-16.479-48.146-40.333-83.727-59.086-106.495  c-24.997-30.352-46.329-45.059-47.225-45.67c-2.383-1.626-5.353-2.143-8.145-1.419c-2.793,0.724-5.137,2.618-6.43,5.197  c-0.276,0.549-27.964,55.745-64.162,126.796c-19.702,38.672-28.085,81.103-24.24,122.704c3.17,34.295,14.465,67.181,31.806,92.597  c12.857,18.845,30.22,35.987,39.424,44.529c6.268,5.815,12.436,11.057,17.367,14.757c1.329,0.997,2.614,1.937,3.869,2.783  c-1.477,12.516-3.141,25.286-5.022,38.288c-0.79,5.466,3,10.538,8.466,11.328c0.485,0.07,0.968,0.104,1.444,0.104  c4.889,0,9.164-3.589,9.884-8.569c2.023-13.985,3.804-27.718,5.367-41.153c7.14-4.128,13.728-8.134,19.9-12.123  c17.403,2.792,31.986,3.773,45.423,3.773c12.036,0,23.161-0.783,34.577-1.743c21.674-1.823,45.217-11.172,66.291-26.325  c24.846-17.865,46.053-43.647,61.326-74.56c27.896-56.456,33.752-108.438,33.753-142.104  C462.298,140.605,455.642,117.3,455.357,116.326z M207.573,153.962c-0.571-5.493-5.486-9.472-10.982-8.91  c-5.493,0.572-9.482,5.489-8.91,10.982c0.123,1.182,10.631,105.917-4.239,251.205c-12.803-10.711-33.426-30.711-46.693-50.156  c-8.953-13.123-24.55-41.378-28.412-83.166c-3.496-37.831,4.162-76.485,22.146-111.784c26.771-52.547,48.895-96.436,58.731-115.989  c8.089,6.825,20.736,18.562,34.478,35.337c21.38,26.099,49.891,70.129,64.307,131.679c16.981,72.505-6.181,126.697-31.175,151.073  c-13.051,12.729-25.819,23.212-41.191,33.581c-2.528,0.514-4.761,1.994-6.226,4.104c-1.853,1.193-3.754,2.39-5.69,3.59  C218.224,260.028,207.698,155.156,207.573,153.962z M410.614,310.584c-19.133,38.72-59.778,85.476-111.363,89.814  c-17.85,1.501-34.057,2.508-54.199,0.775c8.907-6.981,17.254-14.35,25.736-22.622c12.25-11.948,22.553-27.969,29.967-46.3  c0.407-0.334,0.8-0.693,1.16-1.1c55.89-63.249,85.853-108.225,87.101-110.108c3.051-4.603,1.791-10.807-2.812-13.857  c-4.602-3.052-10.808-1.794-13.859,2.809c-0.25,0.377-21.367,32.052-60.273,78.647c3.334-25.423,1.81-52.669-4.601-80.042  c-1.142-4.876-2.377-9.637-3.677-14.307c7.812-4.766,16.068-9.061,24.638-12.791c49.683-21.631,91.124-39.881,110.16-48.283  C443.329,159.916,450.107,230.654,410.614,310.584z" fill="#474747"/></svg>