<?xml version="1.0" ?><!DOCTYPE svg  PUBLIC '-//W3C//DTD SVG 1.1//EN'  'http://www.w3.org/Graphics/SVG/1.1/DTD/svg11.dtd'><svg enable-background="new 0 0 128 128" height="128px" id="Layer_1" version="1.1" viewBox="0 0 128 128" width="128px" xml:space="preserve" xmlns="http://www.w3.org/2000/svg" xmlns:xlink="http://www.w3.org/1999/xlink"><g><path d="M87.507,46.158l-7.974-16.352c-1.152-2.689-2.127-7.437-2.127-10.367v-5.586c1.686-0.453,2.938-2,2.938-3.853V4   c0-2.206-1.767-4-3.938-4H51.594c-2.171,0-3.938,1.794-3.938,4v6c0,1.853,1.252,3.4,2.938,3.853v5.586   c0,2.931-0.975,7.677-2.089,10.277l-8.054,16.529C39.077,49.454,38,54.7,38,58.188v62c0,4.309,3.504,7.812,7.812,7.812h36.375   c4.308,0,7.812-3.505,7.812-7.812v-62C90,54.694,88.923,49.448,87.507,46.158z M76.344,4l-0.006,6H51.656l-0.062-6H76.344z    M86,120.188c0,2.104-1.71,3.812-3.812,3.812H45.812C43.71,124,42,122.29,42,120.188v-62c0-2.927,0.974-7.675,2.087-10.278   l8.054-16.528c1.375-3.204,2.453-8.45,2.453-11.943V14h18.812v5.439c0,3.491,1.076,8.737,2.49,12.031l7.975,16.354   C85.025,50.51,86,55.257,86,58.188V120.188z"/><path d="M76,64H52c-2.206,0-4,1.794-4,4v28c0,2.206,1.794,4,4,4h24c2.206,0,4-1.794,4-4V68C80,65.794,78.206,64,76,64z M75.994,96   H52V68h24L75.994,96z"/></g></svg>